<?xml version="1.0" encoding="UTF-8"?>
<!DOCTYPE svg PUBLIC "-//W3C//DTD SVG 1.1//EN" "http://www.w3.org/Graphics/SVG/1.1/DTD/svg11.dtd">
<svg xmlns="http://www.w3.org/2000/svg" version="1.1" width="1920px" height="1080px" style="shape-rendering:geometricPrecision; text-rendering:geometricPrecision; image-rendering:optimizeQuality; fill-rule:evenodd; clip-rule:evenodd" xmlns:xlink="http://www.w3.org/1999/xlink">
<g><path style="opacity:0.988" fill="#fefefe" d="M 1573.5,124.5 C 1599.83,122.722 1625.16,126.889 1649.5,137C 1670.66,147.411 1691.66,158.078 1712.5,169C 1734.09,183.258 1751.59,201.425 1765,223.5C 1774.33,242.167 1783.67,260.833 1793,279.5C 1809.31,318.318 1810.64,357.652 1797,397.5C 1786.88,419.745 1776.21,441.745 1765,463.5C 1750.5,487.333 1731.33,506.5 1707.5,521C 1694.68,527.245 1682.01,533.745 1669.5,540.5C 1660.51,559.147 1651.01,577.481 1641,595.5C 1637.25,601.258 1632.75,606.425 1627.5,611C 1607.84,622.328 1587.51,632.328 1566.5,641C 1554.1,643.589 1542.1,642.255 1530.5,637C 1510.96,627.229 1491.63,617.563 1472.5,608C 1463.3,629.908 1453.13,651.408 1442,672.5C 1431.17,690 1417,704.167 1399.5,715C 1380.56,725.305 1361.22,734.805 1341.5,743.5C 1331.83,739.583 1322.33,735.25 1313,730.5C 1303.67,735.247 1294.17,739.58 1284.5,743.5C 1279.06,741.965 1273.73,740.131 1268.5,738C 1260.62,733.891 1252.62,730.058 1244.5,726.5C 1232.17,732.331 1219.84,738.164 1207.5,744C 1199.83,744.667 1192.17,744.667 1184.5,744C 1173.13,738.9 1161.97,733.4 1151,727.5C 1138.03,734.65 1124.7,740.984 1111,746.5C 1099.3,741.985 1087.97,736.651 1077,730.5C 1068.15,735.51 1058.98,739.844 1049.5,743.5C 1040.21,740.904 1031.38,737.238 1023,732.5C 1016.7,736.067 1010.2,739.234 1003.5,742C 998.309,742.297 993.143,742.797 988,743.5C 982.313,741.99 976.979,739.657 972,736.5C 968.823,738.783 965.323,739.617 961.5,739C 955.941,736.637 950.441,734.137 945,731.5C 935.772,735.864 926.605,740.364 917.5,745C 910.184,745.568 903.184,744.234 896.5,741C 879.911,733.124 863.744,724.624 848,715.5C 838.915,717.646 830.582,715.979 823,710.5C 807.578,718.461 792.078,726.294 776.5,734C 768.405,737.532 760.071,740.365 751.5,742.5C 742.925,739.797 734.758,736.13 727,731.5C 718.911,735.794 710.745,739.961 702.5,744C 694.167,744.667 685.833,744.667 677.5,744C 662.133,736.9 646.966,729.4 632,721.5C 627.335,724.722 622.168,726.555 616.5,727C 604.955,733.19 593.121,738.69 581,743.5C 572.333,740.25 563.833,736.584 555.5,732.5C 547.172,736.331 538.838,740.164 530.5,744C 522.833,744.667 515.167,744.667 507.5,744C 492.044,736.772 476.711,729.272 461.5,721.5C 453.411,706.323 445.578,690.99 438,675.5C 437.333,645.5 437.333,615.5 438,585.5C 438.402,584.128 438.902,582.795 439.5,581.5C 439.167,581.167 438.833,580.833 438.5,580.5C 426.167,586.667 413.833,592.833 401.5,599C 387.626,604.555 373.626,604.888 359.5,600C 354.394,597.364 349.228,594.864 344,592.5C 328.772,599.864 313.605,607.364 298.5,615C 282.812,622.208 266.478,624.874 249.5,623C 234.833,615.667 220.167,608.333 205.5,601C 202.877,597.588 200.377,594.088 198,590.5C 191,576.5 184,562.5 177,548.5C 166.348,515.881 156.515,483.048 147.5,450C 147.637,447.102 148.137,444.269 149,441.5C 155.784,427.431 162.951,413.598 170.5,400C 185.167,392.667 199.833,385.333 214.5,378C 225.372,375.376 235.706,371.376 245.5,366C 263.639,359.701 281.973,359.035 300.5,364C 318.549,372.441 336.383,381.275 354,390.5C 367.023,384.513 380.523,383.013 394.5,386C 396.334,381.995 398.667,378.328 401.5,375C 415.5,368 429.5,361 443.5,354C 463.954,353.896 482.954,359.229 500.5,370C 507.034,370.907 513.368,372.573 519.5,375C 531.383,381.108 543.383,386.942 555.5,392.5C 563.162,389.003 570.828,385.503 578.5,382C 594.468,378.342 610.468,374.675 626.5,371C 640.5,364 654.5,357 668.5,350C 675.099,348.504 681.766,348.171 688.5,349C 705.4,356.449 722.067,364.449 738.5,373C 740.333,374.833 742.167,376.667 744,378.5C 745.841,382.857 748.174,386.857 751,390.5C 767.516,393.422 782.849,399.422 797,408.5C 801.787,399.09 806.953,389.924 812.5,381C 826.711,373.728 841.044,366.728 855.5,360C 868.433,357.908 881.433,357.241 894.5,358C 907.833,364.667 921.167,371.333 934.5,378C 937.875,381.301 940.875,384.801 943.5,388.5C 952.283,384.609 960.95,380.442 969.5,376C 974.076,374.524 978.743,374.19 983.5,375C 1003.11,383.22 1022.27,392.387 1041,402.5C 1051.15,399.53 1061.48,398.53 1072,399.5C 1087.23,390.132 1103.06,381.632 1119.5,374C 1123.83,373.333 1128.17,373.333 1132.5,374C 1152.77,382.554 1172.61,392.054 1192,402.5C 1198.72,401.081 1205.55,400.081 1212.5,399.5C 1214.87,393.924 1217.87,388.757 1221.5,384C 1234.83,377.333 1248.17,370.667 1261.5,364C 1264,363.5 1266.5,363 1269,362.5C 1279.99,364.29 1290.83,366.79 1301.5,370C 1314.83,376.667 1328.17,383.333 1341.5,390C 1343.05,391.214 1344.22,392.714 1345,394.5C 1354.44,389.865 1363.61,384.865 1372.5,379.5C 1364.86,345.608 1367.69,312.608 1381,280.5C 1390.67,261.167 1400.33,241.833 1410,222.5C 1423.45,200.047 1441.29,181.88 1463.5,168C 1483.01,157.744 1502.68,147.744 1522.5,138C 1538.95,130.898 1555.95,126.398 1573.5,124.5 Z"/></g>
<g><path style="opacity:1" fill="#8899a6" d="M 1627.5,494.5 C 1629.16,490.288 1628.49,486.455 1625.5,483C 1615.82,477.659 1605.82,473.159 1595.5,469.5C 1595.17,468.5 1594.5,467.833 1593.5,467.5C 1588.89,464.36 1583.89,462.026 1578.5,460.5C 1554.75,450.3 1537.75,456.967 1527.5,480.5C 1524.47,474.451 1520.47,469.118 1515.5,464.5C 1511.31,460.338 1506.31,457.338 1500.5,455.5C 1499.89,455.624 1499.56,455.957 1499.5,456.5C 1497.43,455.486 1495.43,454.486 1493.5,453.5C 1494.74,453.19 1494.74,452.69 1493.5,452C 1486.87,450.955 1480.21,450.289 1473.5,450C 1469.26,445.268 1465.26,440.435 1461.5,435.5C 1426.64,382.71 1422.8,327.71 1450,270.5C 1488.01,207.917 1543.51,181.417 1616.5,191C 1669.81,202.656 1707.98,233.156 1731,282.5C 1752.42,338.554 1745.76,390.887 1711,439.5C 1689.14,466.852 1661.31,485.185 1627.5,494.5 Z"/></g>
<g><path style="opacity:1" fill="#badcf4" d="M 1574.5,234.5 C 1629.82,232.227 1668.66,256.227 1691,306.5C 1705.12,353.186 1694.62,393.352 1659.5,427C 1621.41,456.624 1580.41,461.291 1536.5,441C 1493.65,415.472 1474.48,377.639 1479,327.5C 1490.37,275.296 1522.2,244.296 1574.5,234.5 Z"/></g>
<g><path style="opacity:1" fill="#0ac0dc" d="M 690.5,419.5 C 703.451,430.449 703.785,441.783 691.5,453.5C 675.568,459.034 665.235,453.701 660.5,437.5C 664.292,421.027 674.292,415.027 690.5,419.5 Z"/></g>
<g><path style="opacity:1" fill="#06c0dd" d="M 477.5,429.5 C 482.62,431.901 487.286,435.068 491.5,439C 493.134,439.494 494.801,439.66 496.5,439.5C 502.725,439.944 508.725,441.278 514.5,443.5C 521.169,446.841 527.169,451.175 532.5,456.5C 541.774,470.1 542.941,484.433 536,499.5C 535.833,501.667 535.667,503.833 535.5,506C 535.748,511.031 536.581,515.864 538,520.5C 531.406,524.699 524.24,526.866 516.5,527C 514.297,524.628 511.963,522.461 509.5,520.5C 506.391,515.149 504.724,509.315 504.5,503C 506.296,494.613 508.296,486.279 510.5,478C 510.752,474.003 509.252,470.837 506,468.5C 500.171,483.316 494.338,498.15 488.5,513C 479.308,511.499 470.475,508.665 462,504.5C 462.763,498.365 464.263,492.365 466.5,486.5C 471.43,477.862 473.597,468.529 473,458.5C 471.726,454.515 469.726,453.848 467,456.5C 461.932,470.538 456.765,484.538 451.5,498.5C 449.579,499.641 447.579,499.808 445.5,499C 438.578,496.137 431.578,493.47 424.5,491C 423.978,490.439 423.645,489.772 423.5,489C 424.811,485.569 425.811,482.069 426.5,478.5C 433.909,460.122 441.242,441.622 448.5,423C 458.255,424.298 467.922,426.465 477.5,429.5 Z"/></g>
<g><path style="opacity:1" fill="#05c0dd" d="M 890.5,427.5 C 895.19,448.129 899.19,468.962 902.5,490C 902.68,492.241 903.513,492.741 905,491.5C 907.09,487.401 908.256,483.067 908.5,478.5C 909.586,478.38 910.253,477.713 910.5,476.5C 912.541,469.544 914.874,462.71 917.5,456C 918.873,455.125 920.373,454.625 922,454.5C 928.928,455.57 935.762,456.904 942.5,458.5C 943.925,459.922 944.925,461.589 945.5,463.5C 945.168,476.184 945.501,488.851 946.5,501.5C 950.522,496.795 953.522,491.462 955.5,485.5C 962.41,471.981 969.243,458.314 976,444.5C 976.725,443.941 977.558,443.608 978.5,443.5C 980.516,444.178 982.516,444.844 984.5,445.5C 987.088,447.625 990.088,448.958 993.5,449.5C 996.611,451.559 999.944,453.392 1003.5,455C 1004.08,455.893 1004.41,456.893 1004.5,458C 1001.6,465.55 998.595,473.05 995.5,480.5C 986.226,500.381 975.392,519.381 963,537.5C 958.869,542.475 954.035,546.475 948.5,549.5C 942.208,548.118 935.874,546.951 929.5,546C 927.714,545.215 926.214,544.049 925,542.5C 924.221,531.807 923.221,521.14 922,510.5C 916.821,520.873 910.654,530.539 903.5,539.5C 895.002,539.568 886.669,538.401 878.5,536C 877.667,535.167 876.833,534.333 876,533.5C 870.333,502.5 864.667,471.5 859,440.5C 858.901,438.347 858.067,436.681 856.5,435.5C 856.978,433.083 857.978,430.916 859.5,429C 869.847,427.107 880.18,426.607 890.5,427.5 Z"/></g>
<g><path style="opacity:1" fill="#0b0b0b" d="M 700.5,424.5 C 711.884,434.773 713.384,446.44 705,459.5C 702.982,461.35 701.149,463.35 699.5,465.5C 700.304,466.941 700.971,468.441 701.5,470C 696.92,492.989 691.753,515.822 686,538.5C 684.137,540.205 681.971,541.205 679.5,541.5C 669.381,539.848 659.381,537.682 649.5,535C 646.13,532.303 644.796,528.803 645.5,524.5C 646.117,524.389 646.617,524.056 647,523.5C 648.171,524.893 649.671,525.727 651.5,526C 659.732,528.175 668.065,529.509 676.5,530C 677.333,529.167 678.167,528.333 679,527.5C 681.276,516.726 683.943,506.059 687,495.5C 688.061,486.591 690.061,477.924 693,469.5C 693.887,465.587 693.387,461.92 691.5,458.5C 700.798,450.784 704.298,440.784 702,428.5C 700.447,427.156 699.947,425.823 700.5,424.5 Z"/></g>
<g><path style="opacity:1" fill="#151515" d="M 894.5,428.5 C 897.675,428.84 899.841,430.507 901,433.5C 903.708,446.085 905.875,458.751 907.5,471.5C 907.665,475.182 907.499,478.848 907,482.5C 906.047,484.592 904.714,484.925 903,483.5C 899.522,465.633 896.355,447.633 893.5,429.5C 893.624,428.893 893.957,428.56 894.5,428.5 Z"/></g>
<g><path style="opacity:1" fill="#04c1dd" d="M 300.5,434.5 C 318.876,446.465 328.876,463.631 330.5,486C 329.113,506.286 320.113,522.119 303.5,533.5C 286.898,543.455 268.898,548.288 249.5,548C 248.333,546.833 247.167,545.667 246,544.5C 239.16,522.465 232.327,500.465 225.5,478.5C 222.946,469.255 219.946,460.255 216.5,451.5C 216.137,449.089 217.137,447.589 219.5,447C 225.786,444.845 232.12,442.845 238.5,441C 258.22,429.586 278.887,427.419 300.5,434.5 Z"/></g>
<g><path style="opacity:1" fill="#06c0dc" d="M 1296.5,438.5 C 1296.98,439.416 1297.31,440.416 1297.5,441.5C 1294.67,452.477 1292.01,463.477 1289.5,474.5C 1293.22,475.297 1296.89,476.297 1300.5,477.5C 1301.39,478.11 1302.39,478.443 1303.5,478.5C 1324.02,488.865 1331.52,505.198 1326,527.5C 1325.33,531.167 1325.33,534.833 1326,538.5C 1327.87,542.896 1329.7,547.229 1331.5,551.5C 1330.83,551.5 1330.5,551.833 1330.5,552.5C 1324.5,554.833 1318.5,557.166 1312.5,559.5C 1305.74,557.413 1300.41,553.413 1296.5,547.5C 1293.88,541.127 1292.88,534.461 1293.5,527.5C 1293.5,526.5 1293.5,525.5 1293.5,524.5C 1297.24,516.116 1295.91,508.616 1289.5,502C 1287.35,500.589 1285.02,499.755 1282.5,499.5C 1282.17,502.167 1281.83,504.833 1281.5,507.5C 1278.08,520.323 1274.42,533.156 1270.5,546C 1260.97,545.453 1251.63,543.619 1242.5,540.5C 1241.35,537.894 1241.18,535.227 1242,532.5C 1243.5,526.482 1245,520.482 1246.5,514.5C 1252.86,487.392 1259.69,460.392 1267,433.5C 1267.74,432.426 1268.74,431.759 1270,431.5C 1278.88,433.762 1287.72,436.096 1296.5,438.5 Z"/></g>
<g><path style="opacity:1" fill="#495153" d="M 477.5,429.5 C 484.874,431.019 491.207,434.352 496.5,439.5C 494.801,439.66 493.134,439.494 491.5,439C 487.286,435.068 482.62,431.901 477.5,429.5 Z"/></g>
<g><path style="opacity:1" fill="#0380ba" d="M 626.5,436.5 C 629.218,448.915 632.385,461.249 636,473.5C 638.287,479.296 642.453,482.63 648.5,483.5C 647.474,490.845 646.308,498.178 645,505.5C 644.5,506 644,506.5 643.5,507C 637.017,507.979 630.684,507.479 624.5,505.5C 612.697,516.821 598.697,520.988 582.5,518C 562.427,511.428 552.76,497.595 553.5,476.5C 559.343,454.049 574.01,442.882 597.5,443C 605.684,439.659 614.184,437.159 623,435.5C 624.256,435.648 625.423,435.982 626.5,436.5 Z"/></g>
<g><path style="opacity:1" fill="#060708" d="M 626.5,436.5 C 631.165,436.579 634.665,438.579 637,442.5C 638.837,454.369 641.504,466.036 645,477.5C 645.926,479.692 647.093,481.692 648.5,483.5C 642.453,482.63 638.287,479.296 636,473.5C 632.385,461.249 629.218,448.915 626.5,436.5 Z"/></g>
<g><path style="opacity:1" fill="#0280ba" d="M 1399.5,437.5 C 1406.16,462.993 1414.33,487.993 1424,512.5C 1426.47,516.504 1429.97,518.504 1434.5,518.5C 1435.17,518.833 1435.83,519.167 1436.5,519.5C 1436.13,526.837 1435.63,534.171 1435,541.5C 1434.69,542.308 1434.19,542.975 1433.5,543.5C 1430.55,544.123 1427.55,544.456 1424.5,544.5C 1420.47,544.68 1416.64,544.014 1413,542.5C 1396.54,559.993 1377.7,563.159 1356.5,552C 1345.2,543.274 1339.54,531.774 1339.5,517.5C 1343.45,497.544 1355.45,486.211 1375.5,483.5C 1376.83,483.5 1378.17,483.5 1379.5,483.5C 1376.78,473.489 1373.94,463.489 1371,453.5C 1370.58,452.244 1369.75,451.577 1368.5,451.5C 1368.49,447.418 1370.49,444.918 1374.5,444C 1381.17,441.667 1387.83,439.333 1394.5,437C 1396.27,436.36 1397.93,436.527 1399.5,437.5 Z"/></g>
<g><path style="opacity:1" fill="#030505" d="M 1399.5,437.5 C 1407.5,439.127 1411.5,444.127 1411.5,452.5C 1417.33,471.137 1423.16,489.803 1429,508.5C 1430.59,512.021 1432.43,515.354 1434.5,518.5C 1429.97,518.504 1426.47,516.504 1424,512.5C 1414.33,487.993 1406.16,462.993 1399.5,437.5 Z"/></g>
<g><path style="opacity:1" fill="#a0afb8" d="M 1461.5,435.5 C 1465.26,440.435 1469.26,445.268 1473.5,450C 1480.21,450.289 1486.87,450.955 1493.5,452C 1494.74,452.69 1494.74,453.19 1493.5,453.5C 1478.07,449.522 1463.73,451.856 1450.5,460.5C 1448.47,457.806 1446.14,455.473 1443.5,453.5C 1450.5,448.5 1456.5,442.5 1461.5,435.5 Z"/></g>
<g><path style="opacity:1" fill="#101010" d="M 1298.5,439.5 C 1303.33,439.988 1306.33,442.655 1307.5,447.5C 1305.65,455.888 1303.65,464.222 1301.5,472.5C 1300.85,472.804 1300.18,473.137 1299.5,473.5C 1297.83,471.914 1295.83,471.247 1293.5,471.5C 1295.48,460.902 1297.15,450.236 1298.5,439.5 Z"/></g>
<g><path style="opacity:1" fill="#06c0dd" d="M 1135.5,445.5 C 1137.43,447.293 1139.76,448.293 1142.5,448.5C 1144.43,450.293 1146.76,451.293 1149.5,451.5C 1149.84,452.338 1150.51,452.672 1151.5,452.5C 1152.51,454.402 1152.68,456.402 1152,458.5C 1150.3,462.725 1148.47,466.892 1146.5,471C 1149.48,473.495 1152.48,475.995 1155.5,478.5C 1152.83,486.008 1149.49,493.175 1145.5,500C 1141.83,500.677 1138.5,499.844 1135.5,497.5C 1131.74,504.346 1130.58,511.679 1132,519.5C 1135.9,522.243 1136.24,525.243 1133,528.5C 1128.59,533.42 1123.75,537.753 1118.5,541.5C 1110.87,538.203 1105.2,532.87 1101.5,525.5C 1101.48,523.435 1101.15,521.435 1100.5,519.5C 1100.5,514.833 1100.5,510.167 1100.5,505.5C 1101.01,501.803 1101.67,498.136 1102.5,494.5C 1104.63,491.445 1105.3,488.111 1104.5,484.5C 1102.47,483.487 1100.47,482.487 1098.5,481.5C 1097.5,480.833 1096.5,480.167 1095.5,479.5C 1098.42,471.83 1101.75,464.33 1105.5,457C 1109.13,456.593 1112.63,457.093 1116,458.5C 1118.84,453.315 1121.67,448.149 1124.5,443C 1128.25,443.192 1131.92,444.025 1135.5,445.5 Z"/></g>
<g><path style="opacity:1" fill="#5d6b6d" d="M 1135.5,445.5 C 1138.24,445.707 1140.57,446.707 1142.5,448.5C 1139.76,448.293 1137.43,447.293 1135.5,445.5 Z"/></g>
<g><path style="opacity:1" fill="#556567" d="M 984.5,445.5 C 987.912,446.042 990.912,447.375 993.5,449.5C 990.088,448.958 987.088,447.625 984.5,445.5 Z"/></g>
<g><path style="opacity:1" fill="#1c1c1c" d="M 662.5,454.5 C 661.637,452.579 660.971,450.579 660.5,448.5C 660.338,446.473 660.505,444.473 661,442.5C 661.813,445.821 663.313,448.821 665.5,451.5C 665.484,453.516 664.484,454.516 662.5,454.5 Z"/></g>
<g><path style="opacity:1" fill="#5c6a6c" d="M 1142.5,448.5 C 1145.24,448.707 1147.57,449.707 1149.5,451.5C 1146.76,451.293 1144.43,450.293 1142.5,448.5 Z"/></g>
<g><path style="opacity:1" fill="#677680" d="M 1443.5,453.5 C 1446.14,455.473 1448.47,457.806 1450.5,460.5C 1442.41,467.678 1437.74,476.678 1436.5,487.5C 1435.03,490.886 1434.36,494.553 1434.5,498.5C 1434.5,501.025 1434.84,503.359 1435.5,505.5C 1435.77,509.823 1436.77,513.99 1438.5,518C 1438.16,519.03 1437.5,519.53 1436.5,519.5C 1435.83,519.167 1435.17,518.833 1434.5,518.5C 1432.43,515.354 1430.59,512.021 1429,508.5C 1423.16,489.803 1417.33,471.137 1411.5,452.5C 1412.12,452.611 1412.62,452.944 1413,453.5C 1423.28,445.517 1433.44,445.517 1443.5,453.5 Z"/></g>
<g><path style="opacity:1" fill="#0380ba" d="M 400.5,453.5 C 411.133,460.742 417.8,470.742 420.5,483.5C 420.5,486.833 420.5,490.167 420.5,493.5C 411.435,518.554 393.435,529.721 366.5,527C 354.707,523.86 345.874,517.027 340,506.5C 339.969,496.062 339.136,485.728 337.5,475.5C 349.672,452.146 368.672,443.979 394.5,451C 396.723,451.566 398.723,452.4 400.5,453.5 Z"/></g>
<g><path style="opacity:1" fill="#373939" d="M 1296.5,438.5 C 1297.49,438.328 1298.16,438.662 1298.5,439.5C 1297.15,450.236 1295.48,460.902 1293.5,471.5C 1295.83,471.247 1297.83,471.914 1299.5,473.5C 1300.18,473.137 1300.85,472.804 1301.5,472.5C 1300.96,474.117 1300.63,475.784 1300.5,477.5C 1296.89,476.297 1293.22,475.297 1289.5,474.5C 1292.01,463.477 1294.67,452.477 1297.5,441.5C 1297.31,440.416 1296.98,439.416 1296.5,438.5 Z"/></g>
<g><path style="opacity:1" fill="#444e4f" d="M 514.5,443.5 C 520.86,444.848 526.527,447.515 531.5,451.5C 530.957,451.56 530.624,451.893 530.5,452.5C 531.63,453.622 532.297,454.956 532.5,456.5C 527.169,451.175 521.169,446.841 514.5,443.5 Z"/></g>
<g><path style="opacity:1" fill="#080d11" d="M 1368.5,451.5 C 1369.75,451.577 1370.58,452.244 1371,453.5C 1373.94,463.489 1376.78,473.489 1379.5,483.5C 1378.17,483.5 1376.83,483.5 1375.5,483.5C 1373.31,475.414 1370.81,467.414 1368,459.5C 1367.4,456.779 1367.57,454.113 1368.5,451.5 Z"/></g>
<g><path style="opacity:1" fill="#04c0dd" d="M 1493.5,453.5 C 1495.43,454.486 1497.43,455.486 1499.5,456.5C 1518.76,468.283 1524.76,484.949 1517.5,506.5C 1505.66,525.082 1488.66,532.915 1466.5,530C 1460.25,528.208 1454.58,525.374 1449.5,521.5C 1439.7,512.337 1435.37,501.004 1436.5,487.5C 1437.74,476.678 1442.41,467.678 1450.5,460.5C 1463.73,451.856 1478.07,449.522 1493.5,453.5 Z"/></g>
<g><path style="opacity:1" fill="#4c5151" d="M 660.5,437.5 C 665.235,453.701 675.568,459.034 691.5,453.5C 690.134,454.92 688.8,456.42 687.5,458C 687.978,459.303 688.645,460.469 689.5,461.5C 680.613,459.029 671.613,457.029 662.5,455.5C 662.5,455.167 662.5,454.833 662.5,454.5C 664.484,454.516 665.484,453.516 665.5,451.5C 663.313,448.821 661.813,445.821 661,442.5C 660.505,444.473 660.338,446.473 660.5,448.5C 659.285,444.967 659.285,441.301 660.5,437.5 Z"/></g>
<g><path style="opacity:1" fill="#070a0c" d="M 400.5,453.5 C 410.862,456.525 418.529,462.859 423.5,472.5C 425.128,476.904 424.128,480.57 420.5,483.5C 417.8,470.742 411.133,460.742 400.5,453.5 Z"/></g>
<g><path style="opacity:1" fill="#0280ba" d="M 766.5,458.5 C 780.577,466.297 788.411,478.297 790,494.5C 791.059,497.618 792.392,500.618 794,503.5C 797.312,505.645 800.146,508.312 802.5,511.5C 798.388,517.115 793.722,522.281 788.5,527C 775.721,526.895 766.554,521.062 761,509.5C 758.975,502.066 756.642,494.733 754,487.5C 749.983,482.576 744.816,480.576 738.5,481.5C 740.686,496.467 742.686,511.467 744.5,526.5C 744.167,527.833 743.833,529.167 743.5,530.5C 733.898,532.372 724.231,533.539 714.5,534C 710.902,511.573 707.568,489.073 704.5,466.5C 704.227,464.549 704.893,463.049 706.5,462C 711.47,461.114 716.47,460.448 721.5,460C 736.339,453.354 751.339,452.854 766.5,458.5 Z"/></g>
<g><path style="opacity:1" fill="#404748" d="M 216.5,451.5 C 219.946,460.255 222.946,469.255 225.5,478.5C 221.688,471.943 218.522,464.943 216,457.5C 215.536,458.094 215.369,458.761 215.5,459.5C 214.477,456.842 214.811,454.175 216.5,451.5 Z"/></g>
<g><path style="opacity:1" fill="#0abfdb" d="M 662.5,455.5 C 671.613,457.029 680.613,459.029 689.5,461.5C 690.695,461.866 691.361,462.699 691.5,464C 687.08,484.848 682.58,505.682 678,526.5C 675.847,528.444 673.347,528.944 670.5,528C 662.874,526.543 655.374,524.71 648,522.5C 648.878,509.646 651.044,496.979 654.5,484.5C 655.663,478.19 656.83,471.857 658,465.5C 658.852,461.736 660.352,458.403 662.5,455.5 Z"/></g>
<g><path style="opacity:1" fill="#060707" d="M 1006.5,455.5 C 1014.56,458.411 1016.56,463.744 1012.5,471.5C 1007.17,483.945 1001.34,496.278 995,508.5C 994.673,520.345 999.507,529.512 1009.5,536C 1027.58,545.515 1044.91,544.349 1061.5,532.5C 1067.6,535.16 1073.93,535.993 1080.5,535C 1083.61,528.334 1085.94,521.334 1087.5,514C 1087.36,513.228 1087.02,512.561 1086.5,512C 1081.76,510.932 1078.6,508.099 1077,503.5C 1073.11,490.444 1070.94,477.11 1070.5,463.5C 1075.02,463.392 1078.19,465.392 1080,469.5C 1081.35,482.3 1083.35,494.967 1086,507.5C 1087.39,511.484 1090.22,513.817 1094.5,514.5C 1095.43,515.357 1096.09,516.357 1096.5,517.5C 1096.5,519.167 1096.5,520.833 1096.5,522.5C 1095.18,528.117 1094.01,533.784 1093,539.5C 1091.3,546.579 1086.8,549.579 1079.5,548.5C 1074.9,548.6 1070.57,547.6 1066.5,545.5C 1046.91,558.574 1027.24,558.741 1007.5,546C 998.474,538.112 992.974,528.279 991,516.5C 983.452,531.707 973.952,545.541 962.5,558C 957.676,561.324 952.343,562.324 946.5,561C 941.094,560.385 935.761,559.385 930.5,558C 926.51,556.512 924.176,553.678 923.5,549.5C 923.215,547.712 923.548,546.045 924.5,544.5C 926.952,547.059 929.952,548.559 933.5,549C 940.879,550.609 948.213,550.609 955.5,549C 962.097,543.405 967.597,536.905 972,529.5C 978.065,517.705 984.398,506.039 991,494.5C 992.806,489.899 994.306,485.233 995.5,480.5C 997.558,478.073 999.391,475.407 1001,472.5C 1003.37,466.884 1005.21,461.218 1006.5,455.5 Z"/></g>
<g><path style="opacity:1" fill="#017fba" d="M 1578.5,460.5 C 1582.1,462.977 1585.77,465.477 1589.5,468C 1591.07,468.765 1592.4,468.598 1593.5,467.5C 1594.5,467.833 1595.17,468.5 1595.5,469.5C 1602.41,472.954 1609.41,476.454 1616.5,480C 1617.57,480.739 1618.24,481.739 1618.5,483C 1609.91,506.007 1599.08,527.84 1586,548.5C 1567.85,568.747 1547.02,571.914 1523.5,558C 1519.44,555.642 1515.78,552.808 1512.5,549.5C 1515.28,544.146 1518.95,539.313 1523.5,535C 1525.27,534.36 1526.93,534.527 1528.5,535.5C 1531.91,538.54 1535.91,540.54 1540.5,541.5C 1543.06,541.802 1545.39,541.468 1547.5,540.5C 1552.66,539.58 1557,537.08 1560.5,533C 1545.6,531.081 1534.93,523.415 1528.5,510C 1531.25,500.074 1530.92,490.24 1527.5,480.5C 1537.75,456.967 1554.75,450.3 1578.5,460.5 Z"/></g>
<g><path style="opacity:1" fill="#060707" d="M 329.5,458.5 C 332.563,464.046 335.23,469.712 337.5,475.5C 339.136,485.728 339.969,496.062 340,506.5C 345.874,517.027 354.707,523.86 366.5,527C 393.435,529.721 411.435,518.554 420.5,493.5C 430.525,497.423 440.859,500.257 451.5,502C 456.462,496.131 459.295,489.298 460,481.5C 463.279,475.125 466.445,468.792 469.5,462.5C 470.655,465.446 470.821,468.446 470,471.5C 468.723,476.493 467.556,481.493 466.5,486.5C 461.125,491.639 458.958,497.972 460,505.5C 461.167,506.667 462.333,507.833 463.5,509C 469.337,510.5 475.003,512.5 480.5,515C 485.437,516.369 489.604,515.203 493,511.5C 493.191,506.59 494.191,501.924 496,497.5C 498.958,491.324 502.125,485.324 505.5,479.5C 506.698,484.771 505.865,489.771 503,494.5C 502.753,500.882 502.253,507.215 501.5,513.5C 500.54,517.882 498.54,521.716 495.5,525C 493.722,525.704 491.888,526.204 490,526.5C 481.028,523.731 472.195,520.565 463.5,517C 461.383,515.269 459.883,513.102 459,510.5C 456.083,512.393 452.916,512.893 449.5,512C 442.503,509.391 435.503,506.891 428.5,504.5C 423.162,523.333 410.829,534.833 391.5,539C 366.428,544.1 348.262,535.266 337,512.5C 327.36,534.747 310.86,549.247 287.5,556C 276.424,559.617 265.091,561.283 253.5,561C 246.611,558.256 242.945,553.09 242.5,545.5C 244.452,546.785 246.118,548.451 247.5,550.5C 259.39,552.955 271.39,552.121 283.5,548C 286.399,545.766 289.732,544.433 293.5,544C 296.833,542.333 300.167,540.667 303.5,539C 308.816,534.147 314.316,529.647 320,525.5C 326.748,517.338 331.414,508.005 334,497.5C 335.382,484.277 333.548,471.61 328.5,459.5C 328.624,458.893 328.957,458.56 329.5,458.5 Z"/></g>
<g><path style="opacity:1" fill="#3e3f3f" d="M 890.5,427.5 C 892.099,427.232 893.432,427.566 894.5,428.5C 893.957,428.56 893.624,428.893 893.5,429.5C 896.355,447.633 899.522,465.633 903,483.5C 904.714,484.925 906.047,484.592 907,482.5C 907.499,478.848 907.665,475.182 907.5,471.5C 908.468,473.607 908.802,475.941 908.5,478.5C 908.256,483.067 907.09,487.401 905,491.5C 903.513,492.741 902.68,492.241 902.5,490C 899.19,468.962 895.19,448.129 890.5,427.5 Z"/></g>
<g><path style="opacity:1" fill="#060709" d="M 766.5,458.5 C 779.791,461.955 789.291,469.955 795,482.5C 796.872,490.323 799.205,497.99 802,505.5C 804.371,508.206 807.037,510.539 810,512.5C 813.169,517.033 812.836,521.366 809,525.5C 804.984,529.348 801.151,533.348 797.5,537.5C 794.842,538.997 792.009,539.997 789,540.5C 768.132,535.957 756.798,522.957 755,501.5C 754.218,498.924 752.718,496.924 750.5,495.5C 750.167,496 749.833,496.5 749.5,497C 751.397,508.781 753.064,520.615 754.5,532.5C 755.339,538.867 752.672,542.7 746.5,544C 737.802,544.933 729.135,546.1 720.5,547.5C 716.004,547.169 713.17,544.836 712,540.5C 708.354,518.395 705.188,496.229 702.5,474C 702.3,471.134 702.967,468.634 704.5,466.5C 707.568,489.073 710.902,511.573 714.5,534C 724.231,533.539 733.898,532.372 743.5,530.5C 743.833,529.167 744.167,527.833 744.5,526.5C 742.686,511.467 740.686,496.467 738.5,481.5C 744.816,480.576 749.983,482.576 754,487.5C 756.642,494.733 758.975,502.066 761,509.5C 766.554,521.062 775.721,526.895 788.5,527C 793.722,522.281 798.388,517.115 802.5,511.5C 800.146,508.312 797.312,505.645 794,503.5C 792.392,500.618 791.059,497.618 790,494.5C 788.411,478.297 780.577,466.297 766.5,458.5 Z"/></g>
<g><path style="opacity:1" fill="#0280ba" d="M 1070.5,463.5 C 1070.94,477.11 1073.11,490.444 1077,503.5C 1078.6,508.099 1081.76,510.932 1086.5,512C 1087.02,512.561 1087.36,513.228 1087.5,514C 1085.94,521.334 1083.61,528.334 1080.5,535C 1073.93,535.993 1067.6,535.16 1061.5,532.5C 1044.91,544.349 1027.58,545.515 1009.5,536C 999.507,529.512 994.673,520.345 995,508.5C 1001.34,496.278 1007.17,483.945 1012.5,471.5C 1021.51,468.184 1030.84,466.684 1040.5,467C 1050.28,463.758 1060.28,462.591 1070.5,463.5 Z"/></g>
<g><path style="opacity:1" fill="#091014" d="M 1578.5,460.5 C 1583.89,462.026 1588.89,464.36 1593.5,467.5C 1592.4,468.598 1591.07,468.765 1589.5,468C 1585.77,465.477 1582.1,462.977 1578.5,460.5 Z"/></g>
<g><path style="opacity:1" fill="#0e0e0e" d="M 531.5,451.5 C 544.945,461.395 551.112,474.728 550,491.5C 548.251,498.657 546.751,505.824 545.5,513C 545.667,515.167 545.833,517.333 546,519.5C 549.235,524.087 549.068,528.587 545.5,533C 539.579,535.529 533.579,537.863 527.5,540C 519.133,541.232 512.966,538.066 509,530.5C 506.027,525.893 504.193,520.893 503.5,515.5C 503.677,508.866 504.177,508.866 505,515.5C 506.049,517.618 507.549,519.284 509.5,520.5C 510.596,526.593 514.262,529.927 520.5,530.5C 525.623,529.291 530.623,527.791 535.5,526C 537.667,525.167 539.167,523.667 540,521.5C 540.368,516.593 539.868,511.76 538.5,507C 539.523,500.445 540.689,493.945 542,487.5C 543.204,478.876 542.204,470.542 539,462.5C 536.917,460.244 534.75,458.244 532.5,456.5C 532.297,454.956 531.63,453.622 530.5,452.5C 530.624,451.893 530.957,451.56 531.5,451.5 Z"/></g>
<g><path style="opacity:1" fill="#0f0f0f" d="M 288.5,480.5 C 283.15,472.976 275.817,470.31 266.5,472.5C 270.039,484.448 273.372,496.448 276.5,508.5C 276.157,510.225 275.157,510.725 273.5,510C 272.299,509.097 271.465,507.931 271,506.5C 267.706,496.672 264.706,486.672 262,476.5C 260.816,472.551 260.482,468.551 261,464.5C 266.678,462.345 272.511,462.012 278.5,463.5C 283.917,467.38 287.584,472.38 289.5,478.5C 289.457,479.416 289.124,480.083 288.5,480.5 Z"/></g>
<g><path style="opacity:1" fill="#353838" d="M 300.5,434.5 C 310.381,437.054 318.381,442.388 324.5,450.5C 323.522,450.811 322.855,451.478 322.5,452.5C 334.325,473.685 334.491,495.019 323,516.5C 317.842,523.833 311.342,529.499 303.5,533.5C 320.113,522.119 329.113,506.286 330.5,486C 328.876,463.631 318.876,446.465 300.5,434.5 Z"/></g>
<g><path style="opacity:1" fill="#353737" d="M 292.5,497.5 C 293.188,491.322 291.855,485.655 288.5,480.5C 289.124,480.083 289.457,479.416 289.5,478.5C 287.584,472.38 283.917,467.38 278.5,463.5C 272.511,462.012 266.678,462.345 261,464.5C 260.482,468.551 260.816,472.551 262,476.5C 264.706,486.672 267.706,496.672 271,506.5C 271.465,507.931 272.299,509.097 273.5,510C 275.157,510.725 276.157,510.225 276.5,508.5C 277.338,508.842 277.672,509.508 277.5,510.5C 277.586,511.496 277.252,512.329 276.5,513C 274.564,513.813 272.564,514.313 270.5,514.5C 266.187,498.39 261.354,482.39 256,466.5C 255.219,465.056 255.386,463.723 256.5,462.5C 275.531,454.932 288.031,460.932 294,480.5C 294.667,485.5 294.667,490.5 294,495.5C 293.722,496.416 293.222,497.082 292.5,497.5 Z"/></g>
<g><path style="opacity:1" fill="#414646" d="M 993.5,449.5 C 998.251,450.71 1002.58,452.71 1006.5,455.5C 1005.21,461.218 1003.37,466.884 1001,472.5C 999.391,475.407 997.558,478.073 995.5,480.5C 998.595,473.05 1001.6,465.55 1004.5,458C 1004.41,456.893 1004.08,455.893 1003.5,455C 999.944,453.392 996.611,451.559 993.5,449.5 Z"/></g>
<g><path style="opacity:1" fill="#0380ba" d="M 1216.5,466.5 C 1217.72,473.798 1217.55,481.132 1216,488.5C 1210.17,488.305 1204.34,488.805 1198.5,490C 1189.01,495.141 1186.85,502.641 1192,512.5C 1194.82,516.335 1198.32,518.002 1202.5,517.5C 1206.74,518.49 1210.74,517.656 1214.5,515C 1218.54,511.3 1222.2,507.3 1225.5,503C 1226.93,502.421 1228.26,502.588 1229.5,503.5C 1232.46,506.964 1235.63,510.297 1239,513.5C 1239.84,517.12 1239.17,520.454 1237,523.5C 1220.28,545.456 1199.44,550.622 1174.5,539C 1157.94,525.663 1154.44,509.496 1164,490.5C 1165.08,487.937 1165.58,485.271 1165.5,482.5C 1179.57,467.622 1196.57,462.288 1216.5,466.5 Z"/></g>
<g><path style="opacity:1" fill="#030608" d="M 604.5,491.5 C 603.09,487.603 602.09,483.603 601.5,479.5C 597.818,478.725 595.318,480.059 594,483.5C 593.207,486.741 593.707,489.741 595.5,492.5C 592.133,493.762 589.3,492.762 587,489.5C 581.662,481.541 582.496,474.374 589.5,468C 593.749,465.987 597.916,466.154 602,468.5C 603.768,475.137 605.934,481.637 608.5,488C 607.928,490.074 606.595,491.24 604.5,491.5 Z"/></g>
<g><path style="opacity:1" fill="#141414" d="M 942.5,458.5 C 949.289,458.631 953.289,461.965 954.5,468.5C 955.376,476.863 954.21,484.863 951,492.5C 949.951,493.517 948.784,493.684 947.5,493C 946.845,483.068 946.178,473.235 945.5,463.5C 944.925,461.589 943.925,459.922 942.5,458.5 Z"/></g>
<g><path style="opacity:1" fill="#030506" d="M 1216.5,466.5 C 1220.87,467.098 1224.37,469.098 1227,472.5C 1227.75,481.284 1227.09,489.95 1225,498.5C 1220.56,502.687 1215.39,503.687 1209.5,501.5C 1199.1,503.357 1196.76,508.691 1202.5,517.5C 1198.32,518.002 1194.82,516.335 1192,512.5C 1186.85,502.641 1189.01,495.141 1198.5,490C 1204.34,488.805 1210.17,488.305 1216,488.5C 1217.55,481.132 1217.72,473.798 1216.5,466.5 Z"/></g>
<g><path style="opacity:1" fill="#fbfcfc" d="M 288.5,480.5 C 291.855,485.655 293.188,491.322 292.5,497.5C 289.967,504.203 285.467,509.203 279,512.5C 278.722,511.584 278.222,510.918 277.5,510.5C 277.672,509.508 277.338,508.842 276.5,508.5C 273.372,496.448 270.039,484.448 266.5,472.5C 275.817,470.31 283.15,472.976 288.5,480.5 Z"/></g>
<g><path style="opacity:1" fill="#040709" d="M 390.5,494.5 C 390.747,491.495 389.747,488.995 387.5,487C 380.149,484.784 375.816,487.284 374.5,494.5C 374.555,497.36 375.555,499.693 377.5,501.5C 372.26,502.197 368.427,499.863 366,494.5C 362.784,477.382 369.617,470.882 386.5,475C 392.703,480.633 394.036,487.133 390.5,494.5 Z"/></g>
<g><path style="opacity:1" fill="#050607" d="M 1515.5,464.5 C 1520.47,469.118 1524.47,474.451 1527.5,480.5C 1530.92,490.24 1531.25,500.074 1528.5,510C 1534.93,523.415 1545.6,531.081 1560.5,533C 1557,537.08 1552.66,539.58 1547.5,540.5C 1537.46,535.621 1530.29,527.954 1526,517.5C 1512.75,537.208 1494.25,545.708 1470.5,543C 1466,541.935 1461.67,540.435 1457.5,538.5C 1453.9,536.08 1450.4,533.414 1447,530.5C 1445.79,537.425 1444.96,544.425 1444.5,551.5C 1443.17,553.5 1441.5,555.167 1439.5,556.5C 1432.67,557.771 1425.83,557.771 1419,556.5C 1398.84,574.179 1377.34,576.012 1354.5,562C 1341.72,550.598 1336.72,536.431 1339.5,519.5C 1339.5,518.833 1339.5,518.167 1339.5,517.5C 1339.54,531.774 1345.2,543.274 1356.5,552C 1377.7,563.159 1396.54,559.993 1413,542.5C 1416.64,544.014 1420.47,544.68 1424.5,544.5C 1427.55,544.456 1430.55,544.123 1433.5,543.5C 1434.19,542.975 1434.69,542.308 1435,541.5C 1435.63,534.171 1436.13,526.837 1436.5,519.5C 1437.5,519.53 1438.16,519.03 1438.5,518C 1436.77,513.99 1435.77,509.823 1435.5,505.5C 1435.37,504.761 1435.54,504.094 1436,503.5C 1438.12,511.429 1442.62,517.429 1449.5,521.5C 1451.24,524.41 1453.57,526.91 1456.5,529C 1466.39,533.282 1476.73,534.616 1487.5,533C 1492.47,531.01 1497.47,529.177 1502.5,527.5C 1502.35,526.448 1502.52,525.448 1503,524.5C 1507.63,520.868 1511.97,516.868 1516,512.5C 1517.13,510.655 1517.63,508.655 1517.5,506.5C 1519.31,504.615 1520.48,502.281 1521,499.5C 1523.22,487.429 1521.05,476.263 1514.5,466C 1514.57,465.235 1514.9,464.735 1515.5,464.5 Z"/></g>
<g><path style="opacity:1" fill="#3c4040" d="M 1499.5,456.5 C 1499.56,455.957 1499.89,455.624 1500.5,455.5C 1506.31,457.338 1511.31,460.338 1515.5,464.5C 1514.9,464.735 1514.57,465.235 1514.5,466C 1521.05,476.263 1523.22,487.429 1521,499.5C 1520.48,502.281 1519.31,504.615 1517.5,506.5C 1524.76,484.949 1518.76,468.283 1499.5,456.5 Z"/></g>
<g><path style="opacity:1" fill="#4b4e4f" d="M 945.5,463.5 C 946.178,473.235 946.845,483.068 947.5,493C 948.784,493.684 949.951,493.517 951,492.5C 954.21,484.863 955.376,476.863 954.5,468.5C 955.489,473.975 955.822,479.642 955.5,485.5C 953.522,491.462 950.522,496.795 946.5,501.5C 945.501,488.851 945.168,476.184 945.5,463.5 Z"/></g>
<g><path style="opacity:1" fill="#080809" d="M 1154.5,453.5 C 1161.42,455.259 1163.92,459.593 1162,466.5C 1160.36,469.622 1158.86,472.788 1157.5,476C 1160.83,477.479 1163.49,479.645 1165.5,482.5C 1165.58,485.271 1165.08,487.937 1164,490.5C 1154.44,509.496 1157.94,525.663 1174.5,539C 1199.44,550.622 1220.28,545.456 1237,523.5C 1239.17,520.454 1239.84,517.12 1239,513.5C 1235.63,510.297 1232.46,506.964 1229.5,503.5C 1235.73,504.069 1240.4,507.069 1243.5,512.5C 1242.44,518.613 1240.94,524.613 1239,530.5C 1238.32,534.221 1238.49,537.888 1239.5,541.5C 1218.97,560.59 1196.64,563.09 1172.5,549C 1162.5,540.498 1157.17,529.665 1156.5,516.5C 1156.66,513.482 1156.5,510.482 1156,507.5C 1155.49,508.527 1154.99,509.527 1154.5,510.5C 1153.94,511.79 1152.94,512.623 1151.5,513C 1148.57,513.777 1145.74,513.61 1143,512.5C 1140.51,518.309 1141.18,523.642 1145,528.5C 1145.67,530.5 1145.67,532.5 1145,534.5C 1140.17,540 1135.33,545.5 1130.5,551C 1125.13,555.464 1119.8,555.464 1114.5,551C 1105.28,544.944 1099.94,536.444 1098.5,525.5C 1098.5,521.833 1098.5,518.167 1098.5,514.5C 1098.5,514.167 1098.5,513.833 1098.5,513.5C 1099.17,515.5 1099.83,517.5 1100.5,519.5C 1101.15,521.435 1101.48,523.435 1101.5,525.5C 1101.63,528.766 1102.63,531.766 1104.5,534.5C 1107.97,536.132 1110.63,538.632 1112.5,542C 1116.77,544.284 1120.77,543.95 1124.5,541C 1129.03,536.801 1133.2,532.301 1137,527.5C 1135.48,521.376 1134.82,515.043 1135,508.5C 1135.71,506.919 1136.54,505.419 1137.5,504C 1146.8,504.381 1152.3,499.881 1154,490.5C 1155.68,485.292 1156.51,479.959 1156.5,474.5C 1153.21,473.696 1151.54,471.53 1151.5,468C 1152.76,463.104 1153.76,458.27 1154.5,453.5 Z"/></g>
<g><path style="opacity:1" fill="#efefef" d="M 604.5,491.5 C 601.778,493.673 598.778,494.006 595.5,492.5C 593.707,489.741 593.207,486.741 594,483.5C 595.318,480.059 597.818,478.725 601.5,479.5C 602.09,483.603 603.09,487.603 604.5,491.5 Z"/></g>
<g><path style="opacity:1" fill="#040506" d="M 1595.5,469.5 C 1605.82,473.159 1615.82,477.659 1625.5,483C 1628.49,486.455 1629.16,490.288 1627.5,494.5C 1619.04,515.085 1609.21,535.085 1598,554.5C 1580.1,578.684 1557.27,584.851 1529.5,573C 1523.72,569.556 1518.22,565.723 1513,561.5C 1509.86,557.631 1509.69,553.631 1512.5,549.5C 1515.78,552.808 1519.44,555.642 1523.5,558C 1547.02,571.914 1567.85,568.747 1586,548.5C 1599.08,527.84 1609.91,506.007 1618.5,483C 1618.24,481.739 1617.57,480.739 1616.5,480C 1609.41,476.454 1602.41,472.954 1595.5,469.5 Z"/></g>
<g><path style="opacity:1" fill="#060809" d="M 553.5,476.5 C 552.76,497.595 562.427,511.428 582.5,518C 598.697,520.988 612.697,516.821 624.5,505.5C 630.684,507.479 637.017,507.979 643.5,507C 644,506.5 644.5,506 645,505.5C 646.308,498.178 647.474,490.845 648.5,483.5C 649.833,483.833 651.167,484.167 652.5,484.5C 649.848,496.413 647.848,508.413 646.5,520.5C 643.167,520.5 639.833,520.5 636.5,520.5C 633.824,519.992 631.157,519.825 628.5,520C 616.214,529.906 602.214,533.572 586.5,531C 559.823,522.5 548.823,504.333 553.5,476.5 Z"/></g>
<g><path style="opacity:1" fill="#454848" d="M 1473.5,477.5 C 1467.68,483.011 1466.01,489.678 1468.5,497.5C 1470.57,499.58 1472.91,501.246 1475.5,502.5C 1476.83,503.167 1477.83,504.167 1478.5,505.5C 1467.76,503.216 1463.6,496.55 1466,485.5C 1467.35,481.656 1469.85,478.989 1473.5,477.5 Z"/></g>
<g><path style="opacity:1" fill="#020507" d="M 1577.5,498.5 C 1576.49,496.124 1574.65,495.124 1572,495.5C 1569.35,495.124 1567.51,496.124 1566.5,498.5C 1563.84,502.792 1563.84,507.125 1566.5,511.5C 1556.09,509.363 1552.25,503.03 1555,492.5C 1559.47,482.298 1566.64,479.798 1576.5,485C 1581.17,489.411 1581.5,493.911 1577.5,498.5 Z"/></g>
<g><path style="opacity:1" fill="#f5f6f6" d="M 390.5,494.5 C 388.501,501.166 384.168,503.5 377.5,501.5C 375.555,499.693 374.555,497.36 374.5,494.5C 375.816,487.284 380.149,484.784 387.5,487C 389.747,488.995 390.747,491.495 390.5,494.5 Z"/></g>
<g><path style="opacity:1" fill="#444647" d="M 1473.5,477.5 C 1484.82,474.157 1491.15,478.324 1492.5,490C 1492.64,493.15 1491.97,495.983 1490.5,498.5C 1490.67,496.379 1490.34,494.379 1489.5,492.5C 1491.1,480.874 1485.77,475.874 1473.5,477.5 Z"/></g>
<g><path style="opacity:1" fill="#444647" d="M 1098.5,481.5 C 1100.47,482.487 1102.47,483.487 1104.5,484.5C 1105.3,488.111 1104.63,491.445 1102.5,494.5C 1101.51,494.672 1100.84,494.338 1100.5,493.5C 1102.03,492.508 1102.69,491.008 1102.5,489C 1101.48,486.327 1100.15,483.827 1098.5,481.5 Z"/></g>
<g><path style="opacity:1" fill="#141414" d="M 1473.5,477.5 C 1485.77,475.874 1491.1,480.874 1489.5,492.5C 1489.05,491.542 1488.38,490.708 1487.5,490C 1484.85,489.503 1482.19,489.336 1479.5,489.5C 1477.83,490.343 1476.66,491.676 1476,493.5C 1475.5,496.482 1475.34,499.482 1475.5,502.5C 1472.91,501.246 1470.57,499.58 1468.5,497.5C 1466.01,489.678 1467.68,483.011 1473.5,477.5 Z"/></g>
<g><path style="opacity:1" fill="#353737" d="M 509.5,520.5 C 507.549,519.284 506.049,517.618 505,515.5C 504.177,508.866 503.677,508.866 503.5,515.5C 502.833,514.833 502.167,514.167 501.5,513.5C 502.253,507.215 502.753,500.882 503,494.5C 505.865,489.771 506.698,484.771 505.5,479.5C 502.125,485.324 498.958,491.324 496,497.5C 494.191,501.924 493.191,506.59 493,511.5C 489.604,515.203 485.437,516.369 480.5,515C 475.003,512.5 469.337,510.5 463.5,509C 462.333,507.833 461.167,506.667 460,505.5C 458.958,497.972 461.125,491.639 466.5,486.5C 464.263,492.365 462.763,498.365 462,504.5C 470.475,508.665 479.308,511.499 488.5,513C 494.338,498.15 500.171,483.316 506,468.5C 509.252,470.837 510.752,474.003 510.5,478C 508.296,486.279 506.296,494.613 504.5,503C 504.724,509.315 506.391,515.149 509.5,520.5 Z"/></g>
<g><path style="opacity:1" fill="#f9f9f9" d="M 1479.5,489.5 C 1482.19,489.336 1484.85,489.503 1487.5,490C 1488.38,490.708 1489.05,491.542 1489.5,492.5C 1490.34,494.379 1490.67,496.379 1490.5,498.5C 1489.5,501.5 1487.5,503.5 1484.5,504.5C 1484.2,498.995 1482.53,493.995 1479.5,489.5 Z"/></g>
<g><path style="opacity:1" fill="#030508" d="M 1043.5,515.5 C 1042.83,511.5 1042.17,507.5 1041.5,503.5C 1034.62,503.887 1032.12,507.553 1034,514.5C 1034.66,515.984 1035.5,517.317 1036.5,518.5C 1029.61,517.966 1025.44,514.299 1024,507.5C 1022.35,500.142 1024.85,494.642 1031.5,491C 1035.2,490.196 1038.7,490.696 1042,492.5C 1043.6,499.394 1045.43,506.227 1047.5,513C 1046.97,515.02 1045.63,515.853 1043.5,515.5 Z"/></g>
<g><path style="opacity:1" fill="#181919" d="M 1095.5,479.5 C 1096.5,480.167 1097.5,480.833 1098.5,481.5C 1100.15,483.827 1101.48,486.327 1102.5,489C 1102.69,491.008 1102.03,492.508 1100.5,493.5C 1096.92,493.089 1094.75,491.089 1094,487.5C 1093.57,484.678 1094.07,482.012 1095.5,479.5 Z"/></g>
<g><path style="opacity:1" fill="#6c7b84" d="M 1479.5,489.5 C 1482.53,493.995 1484.2,498.995 1484.5,504.5C 1482.74,505.461 1480.74,505.795 1478.5,505.5C 1477.83,504.167 1476.83,503.167 1475.5,502.5C 1475.34,499.482 1475.5,496.482 1476,493.5C 1476.66,491.676 1477.83,490.343 1479.5,489.5 Z"/></g>
<g><path style="opacity:1" fill="#8d9ba5" d="M 1577.5,498.5 C 1577.5,498.833 1577.5,499.167 1577.5,499.5C 1573.82,499.276 1570.15,498.942 1566.5,498.5C 1567.51,496.124 1569.35,495.124 1572,495.5C 1574.65,495.124 1576.49,496.124 1577.5,498.5 Z"/></g>
<g><path style="opacity:1" fill="#363838" d="M 690.5,419.5 C 694.431,420.132 697.765,421.799 700.5,424.5C 699.947,425.823 700.447,427.156 702,428.5C 704.298,440.784 700.798,450.784 691.5,458.5C 693.387,461.92 693.887,465.587 693,469.5C 690.061,477.924 688.061,486.591 687,495.5C 683.943,506.059 681.276,516.726 679,527.5C 678.167,528.333 677.333,529.167 676.5,530C 668.065,529.509 659.732,528.175 651.5,526C 649.671,525.727 648.171,524.893 647,523.5C 646.617,524.056 646.117,524.389 645.5,524.5C 645.5,523.5 645.5,522.5 645.5,521.5C 642.287,521.81 639.287,521.477 636.5,520.5C 639.833,520.5 643.167,520.5 646.5,520.5C 647.848,508.413 649.848,496.413 652.5,484.5C 653.167,484.5 653.833,484.5 654.5,484.5C 651.044,496.979 648.878,509.646 648,522.5C 655.374,524.71 662.874,526.543 670.5,528C 673.347,528.944 675.847,528.444 678,526.5C 682.58,505.682 687.08,484.848 691.5,464C 691.361,462.699 690.695,461.866 689.5,461.5C 688.645,460.469 687.978,459.303 687.5,458C 688.8,456.42 690.134,454.92 691.5,453.5C 703.785,441.783 703.451,430.449 690.5,419.5 Z"/></g>
<g><path style="opacity:1" fill="#2c2d2d" d="M 466.5,486.5 C 467.556,481.493 468.723,476.493 470,471.5C 470.821,468.446 470.655,465.446 469.5,462.5C 466.445,468.792 463.279,475.125 460,481.5C 459.295,489.298 456.462,496.131 451.5,502C 440.859,500.257 430.525,497.423 420.5,493.5C 420.5,490.167 420.5,486.833 420.5,483.5C 424.128,480.57 425.128,476.904 423.5,472.5C 425.008,474.181 426.008,476.181 426.5,478.5C 425.811,482.069 424.811,485.569 423.5,489C 423.645,489.772 423.978,490.439 424.5,491C 431.578,493.47 438.578,496.137 445.5,499C 447.579,499.808 449.579,499.641 451.5,498.5C 456.765,484.538 461.932,470.538 467,456.5C 469.726,453.848 471.726,454.515 473,458.5C 473.597,468.529 471.43,477.862 466.5,486.5 Z"/></g>
<g><path style="opacity:1" fill="#f8f9f9" d="M 1566.5,498.5 C 1570.15,498.942 1573.82,499.276 1577.5,499.5C 1576.57,503.373 1575.07,507.039 1573,510.5C 1570.96,511.423 1568.79,511.756 1566.5,511.5C 1563.84,507.125 1563.84,502.792 1566.5,498.5 Z"/></g>
<g><path style="opacity:1" fill="#3c4041" d="M 1436.5,487.5 C 1435.37,501.004 1439.7,512.337 1449.5,521.5C 1442.62,517.429 1438.12,511.429 1436,503.5C 1435.54,504.094 1435.37,504.761 1435.5,505.5C 1434.84,503.359 1434.5,501.025 1434.5,498.5C 1434.36,494.553 1435.03,490.886 1436.5,487.5 Z"/></g>
<g><path style="opacity:1" fill="#f0f2f2" d="M 1043.5,515.5 C 1041.68,517.448 1039.35,518.448 1036.5,518.5C 1035.5,517.317 1034.66,515.984 1034,514.5C 1032.12,507.553 1034.62,503.887 1041.5,503.5C 1042.17,507.5 1042.83,511.5 1043.5,515.5 Z"/></g>
<g><path style="opacity:1" fill="#020507" d="M 1393.5,529.5 C 1390.53,526.927 1388.53,523.594 1387.5,519.5C 1382.64,518.514 1380.31,520.681 1380.5,526C 1380.55,528.922 1381.55,531.422 1383.5,533.5C 1376.81,533.313 1372.65,529.979 1371,523.5C 1368.63,515.077 1371.46,509.243 1379.5,506C 1382.53,505.34 1385.37,505.84 1388,507.5C 1390.28,514.07 1393.12,520.403 1396.5,526.5C 1395.81,527.855 1394.81,528.855 1393.5,529.5 Z"/></g>
<g><path style="opacity:1" fill="#0d0d0d" d="M 1292.5,515.5 C 1291.88,515.389 1291.38,515.056 1291,514.5C 1287.51,527.457 1284.18,540.457 1281,553.5C 1280.31,556.057 1278.81,557.891 1276.5,559C 1265.59,558.609 1254.92,556.609 1244.5,553C 1240.09,550.468 1238.43,546.635 1239.5,541.5C 1241.07,543.206 1243.07,544.373 1245.5,545C 1252.74,545.767 1259.9,546.934 1267,548.5C 1268.89,548.42 1270.73,548.087 1272.5,547.5C 1276.75,534.497 1279.75,521.164 1281.5,507.5C 1282.43,503.556 1284.76,502.223 1288.5,503.5C 1291.92,506.762 1293.26,510.762 1292.5,515.5 Z"/></g>
<g><path style="opacity:1" fill="#777777" d="M 1156.5,516.5 C 1155.83,514.5 1155.17,512.5 1154.5,510.5C 1154.99,509.527 1155.49,508.527 1156,507.5C 1156.5,510.482 1156.66,513.482 1156.5,516.5 Z"/></g>
<g><path style="opacity:1" fill="#4d7c83" d="M 1100.5,505.5 C 1100.5,510.167 1100.5,514.833 1100.5,519.5C 1099.83,517.5 1099.17,515.5 1098.5,513.5C 1098.57,510.572 1099.23,507.905 1100.5,505.5 Z"/></g>
<g><path style="opacity:1" fill="#424444" d="M 1293.5,524.5 C 1293.63,521.43 1293.3,518.43 1292.5,515.5C 1293.26,510.762 1291.92,506.762 1288.5,503.5C 1284.76,502.223 1282.43,503.556 1281.5,507.5C 1281.83,504.833 1282.17,502.167 1282.5,499.5C 1285.02,499.755 1287.35,500.589 1289.5,502C 1295.91,508.616 1297.24,516.116 1293.5,524.5 Z"/></g>
<g><path style="opacity:1" fill="#606f7a" d="M 1393.5,529.5 C 1390.66,531.915 1387.33,533.248 1383.5,533.5C 1381.55,531.422 1380.55,528.922 1380.5,526C 1380.31,520.681 1382.64,518.514 1387.5,519.5C 1388.53,523.594 1390.53,526.927 1393.5,529.5 Z"/></g>
<g><path style="opacity:1" fill="#8c8c8c" d="M 1098.5,514.5 C 1098.5,518.167 1098.5,521.833 1098.5,525.5C 1097.83,524.5 1097.17,523.5 1096.5,522.5C 1096.5,520.833 1096.5,519.167 1096.5,517.5C 1097.17,516.5 1097.83,515.5 1098.5,514.5 Z"/></g>
<g><path style="opacity:1" fill="#161616" d="M 324.5,450.5 C 326.167,453.167 327.833,455.833 329.5,458.5C 328.957,458.56 328.624,458.893 328.5,459.5C 333.548,471.61 335.382,484.277 334,497.5C 331.414,508.005 326.748,517.338 320,525.5C 314.316,529.647 308.816,534.147 303.5,539C 300.167,540.667 296.833,542.333 293.5,544C 289.732,544.433 286.399,545.766 283.5,548C 271.39,552.121 259.39,552.955 247.5,550.5C 252.129,551.481 256.796,551.648 261.5,551C 275.459,548.201 288.792,543.367 301.5,536.5C 302.425,535.643 303.092,534.643 303.5,533.5C 311.342,529.499 317.842,523.833 323,516.5C 334.491,495.019 334.325,473.685 322.5,452.5C 322.855,451.478 323.522,450.811 324.5,450.5 Z"/></g>
<g><path style="opacity:1" fill="#383a3b" d="M 856.5,435.5 C 858.067,436.681 858.901,438.347 859,440.5C 864.667,471.5 870.333,502.5 876,533.5C 876.833,534.333 877.667,535.167 878.5,536C 886.669,538.401 895.002,539.568 903.5,539.5C 898.684,540.65 893.684,540.816 888.5,540C 885.247,538.964 881.914,538.297 878.5,538C 876.638,536.634 874.972,535.134 873.5,533.5C 867.386,503.684 861.553,473.684 856,443.5C 855.278,440.739 855.445,438.073 856.5,435.5 Z"/></g>
<g><path style="opacity:1" fill="#2f3131" d="M 1517.5,506.5 C 1517.63,508.655 1517.13,510.655 1516,512.5C 1511.97,516.868 1507.63,520.868 1503,524.5C 1502.52,525.448 1502.35,526.448 1502.5,527.5C 1497.47,529.177 1492.47,531.01 1487.5,533C 1476.73,534.616 1466.39,533.282 1456.5,529C 1453.57,526.91 1451.24,524.41 1449.5,521.5C 1454.58,525.374 1460.25,528.208 1466.5,530C 1488.66,532.915 1505.66,525.082 1517.5,506.5 Z"/></g>
<g><path style="opacity:1" fill="#0c0c0c" d="M 921.5,535.5 C 918.958,541.398 915.292,546.565 910.5,551C 900.008,552.648 889.675,551.648 879.5,548C 874.87,544.367 872.87,539.533 873.5,533.5C 874.972,535.134 876.638,536.634 878.5,538C 881.914,538.297 885.247,538.964 888.5,540C 893.684,540.816 898.684,540.65 903.5,539.5C 905.716,538.797 907.549,537.464 909,535.5C 911.283,531.06 914.116,527.06 917.5,523.5C 918.325,522.614 919.325,522.281 920.5,522.5C 921.295,526.785 921.628,531.119 921.5,535.5 Z"/></g>
<g><path style="opacity:1" fill="#323435" d="M 1151.5,452.5 C 1152.79,452.263 1153.79,452.596 1154.5,453.5C 1153.76,458.27 1152.76,463.104 1151.5,468C 1151.54,471.53 1153.21,473.696 1156.5,474.5C 1156.51,479.959 1155.68,485.292 1154,490.5C 1152.3,499.881 1146.8,504.381 1137.5,504C 1136.54,505.419 1135.71,506.919 1135,508.5C 1134.82,515.043 1135.48,521.376 1137,527.5C 1133.2,532.301 1129.03,536.801 1124.5,541C 1120.77,543.95 1116.77,544.284 1112.5,542C 1110.63,538.632 1107.97,536.132 1104.5,534.5C 1102.63,531.766 1101.63,528.766 1101.5,525.5C 1105.2,532.87 1110.87,538.203 1118.5,541.5C 1123.75,537.753 1128.59,533.42 1133,528.5C 1136.24,525.243 1135.9,522.243 1132,519.5C 1130.58,511.679 1131.74,504.346 1135.5,497.5C 1138.5,499.844 1141.83,500.677 1145.5,500C 1149.49,493.175 1152.83,486.008 1155.5,478.5C 1152.48,475.995 1149.48,473.495 1146.5,471C 1148.47,466.892 1150.3,462.725 1152,458.5C 1152.68,456.402 1152.51,454.402 1151.5,452.5 Z"/></g>
<g><path style="opacity:1" fill="#2d2e2e" d="M 532.5,456.5 C 534.75,458.244 536.917,460.244 539,462.5C 542.204,470.542 543.204,478.876 542,487.5C 540.689,493.945 539.523,500.445 538.5,507C 539.868,511.76 540.368,516.593 540,521.5C 539.167,523.667 537.667,525.167 535.5,526C 530.623,527.791 525.623,529.291 520.5,530.5C 514.262,529.927 510.596,526.593 509.5,520.5C 511.963,522.461 514.297,524.628 516.5,527C 524.24,526.866 531.406,524.699 538,520.5C 536.581,515.864 535.748,511.031 535.5,506C 535.667,503.833 535.833,501.667 536,499.5C 542.941,484.433 541.774,470.1 532.5,456.5 Z"/></g>
<g><path style="opacity:1" fill="#333636" d="M 1303.5,478.5 C 1313.63,481.063 1321.96,486.396 1328.5,494.5C 1327.86,495.097 1327.53,495.93 1327.5,497C 1331.08,509.02 1331.42,521.186 1328.5,533.5C 1329.13,538.893 1330.47,544.06 1332.5,549C 1332.47,550.07 1332.14,550.903 1331.5,551.5C 1329.7,547.229 1327.87,542.896 1326,538.5C 1325.33,534.833 1325.33,531.167 1326,527.5C 1331.52,505.198 1324.02,488.865 1303.5,478.5 Z"/></g>
<g><path style="opacity:1" fill="#63717a" d="M 1457.5,538.5 C 1453.5,543.167 1449.17,547.5 1444.5,551.5C 1444.96,544.425 1445.79,537.425 1447,530.5C 1450.4,533.414 1453.9,536.08 1457.5,538.5 Z"/></g>
<g><path style="opacity:1" fill="#2d2f2f" d="M 225.5,478.5 C 232.327,500.465 239.16,522.465 246,544.5C 247.167,545.667 248.333,546.833 249.5,548C 268.898,548.288 286.898,543.455 303.5,533.5C 303.092,534.643 302.425,535.643 301.5,536.5C 288.792,543.367 275.459,548.201 261.5,551C 256.796,551.648 252.129,551.481 247.5,550.5C 246.118,548.451 244.452,546.785 242.5,545.5C 233.134,517.062 224.134,488.395 215.5,459.5C 215.369,458.761 215.536,458.094 216,457.5C 218.522,464.943 221.688,471.943 225.5,478.5 Z"/></g>
<g><path style="opacity:1" fill="#65737d" d="M 1337.5,517.5 C 1338.17,518.167 1338.83,518.833 1339.5,519.5C 1336.72,536.431 1341.72,550.598 1354.5,562C 1377.34,576.012 1398.84,574.179 1419,556.5C 1425.83,557.771 1432.67,557.771 1439.5,556.5C 1430.17,566.167 1420.83,575.833 1411.5,585.5C 1408.41,581.623 1404.41,579.289 1399.5,578.5C 1398.42,578.461 1397.42,578.127 1396.5,577.5C 1395.06,578.952 1393.39,579.952 1391.5,580.5C 1389.88,579.962 1388.22,579.629 1386.5,579.5C 1383.26,578.42 1379.92,578.253 1376.5,579C 1374.89,580.049 1374.23,581.549 1374.5,583.5C 1372.25,586.542 1371.92,589.875 1373.5,593.5C 1367.31,593.823 1361.31,593.49 1355.5,592.5C 1362.66,593.005 1362.99,591.171 1356.5,587C 1354.87,586.506 1353.2,586.34 1351.5,586.5C 1349.02,585.313 1346.69,585.647 1344.5,587.5C 1338.98,582.278 1334.98,575.945 1332.5,568.5C 1332.04,567.702 1331.38,567.369 1330.5,567.5C 1336.7,566.13 1340.37,562.296 1341.5,556C 1339.65,552.157 1337.82,548.324 1336,544.5C 1336.43,535.52 1336.93,526.52 1337.5,517.5 Z"/></g>
<g><path style="opacity:1" fill="#131b20" d="M 1528.5,535.5 C 1533.19,536.214 1537.19,538.214 1540.5,541.5C 1535.91,540.54 1531.91,538.54 1528.5,535.5 Z"/></g>
<g><path style="opacity:1" fill="#383a3b" d="M 995.5,480.5 C 994.306,485.233 992.806,489.899 991,494.5C 984.398,506.039 978.065,517.705 972,529.5C 967.597,536.905 962.097,543.405 955.5,549C 948.213,550.609 940.879,550.609 933.5,549C 929.952,548.559 926.952,547.059 924.5,544.5C 923.548,546.045 923.215,547.712 923.5,549.5C 922.833,544.833 922.167,540.167 921.5,535.5C 921.628,531.119 921.295,526.785 920.5,522.5C 919.325,522.281 918.325,522.614 917.5,523.5C 914.116,527.06 911.283,531.06 909,535.5C 907.549,537.464 905.716,538.797 903.5,539.5C 910.654,530.539 916.821,520.873 922,510.5C 923.221,521.14 924.221,531.807 925,542.5C 926.214,544.049 927.714,545.215 929.5,546C 935.874,546.951 942.208,548.118 948.5,549.5C 954.035,546.475 958.869,542.475 963,537.5C 975.392,519.381 986.226,500.381 995.5,480.5 Z"/></g>
<g><path style="opacity:1" fill="#454949" d="M 1293.5,527.5 C 1292.88,534.461 1293.88,541.127 1296.5,547.5C 1294.86,546.251 1293.7,544.584 1293,542.5C 1292.81,539.964 1292.31,537.631 1291.5,535.5C 1291.57,532.572 1292.23,529.905 1293.5,527.5 Z"/></g>
<g><path style="opacity:1" fill="#333435" d="M 1281.5,507.5 C 1279.75,521.164 1276.75,534.497 1272.5,547.5C 1270.73,548.087 1268.89,548.42 1267,548.5C 1259.9,546.934 1252.74,545.767 1245.5,545C 1243.07,544.373 1241.07,543.206 1239.5,541.5C 1238.49,537.888 1238.32,534.221 1239,530.5C 1240.94,524.613 1242.44,518.613 1243.5,512.5C 1244.5,513.167 1245.5,513.833 1246.5,514.5C 1245,520.482 1243.5,526.482 1242,532.5C 1241.18,535.227 1241.35,537.894 1242.5,540.5C 1251.63,543.619 1260.97,545.453 1270.5,546C 1274.42,533.156 1278.08,520.323 1281.5,507.5 Z"/></g>
<g><path style="opacity:1" fill="#0a0a0a" d="M 1328.5,494.5 C 1333.99,501.147 1336.99,508.814 1337.5,517.5C 1336.93,526.52 1336.43,535.52 1336,544.5C 1337.82,548.324 1339.65,552.157 1341.5,556C 1340.37,562.296 1336.7,566.13 1330.5,567.5C 1325.8,570.017 1320.8,571.684 1315.5,572.5C 1298.76,566.067 1290.76,553.734 1291.5,535.5C 1292.31,537.631 1292.81,539.964 1293,542.5C 1293.7,544.584 1294.86,546.251 1296.5,547.5C 1296.34,548.873 1296.51,550.207 1297,551.5C 1300.5,554.333 1304,557.167 1307.5,560C 1310.83,560.667 1314.17,560.667 1317.5,560C 1320.62,558.107 1323.95,556.774 1327.5,556C 1328.71,554.961 1329.71,553.794 1330.5,552.5C 1330.5,551.833 1330.83,551.5 1331.5,551.5C 1332.14,550.903 1332.47,550.07 1332.5,549C 1330.47,544.06 1329.13,538.893 1328.5,533.5C 1331.42,521.186 1331.08,509.02 1327.5,497C 1327.53,495.93 1327.86,495.097 1328.5,494.5 Z"/></g>
<g><path style="opacity:1" fill="#3c4142" d="M 1296.5,547.5 C 1300.41,553.413 1305.74,557.413 1312.5,559.5C 1318.5,557.166 1324.5,554.833 1330.5,552.5C 1329.71,553.794 1328.71,554.961 1327.5,556C 1323.95,556.774 1320.62,558.107 1317.5,560C 1314.17,560.667 1310.83,560.667 1307.5,560C 1304,557.167 1300.5,554.333 1297,551.5C 1296.51,550.207 1296.34,548.873 1296.5,547.5 Z"/></g>
<g><path style="opacity:1" fill="#027cb5" d="M 1399.5,578.5 C 1401.68,580.848 1403.68,583.348 1405.5,586C 1403.81,589.349 1401.14,591.516 1397.5,592.5C 1394.93,590.436 1392.43,588.103 1390,585.5C 1389.39,583.505 1389.89,581.838 1391.5,580.5C 1393.39,579.952 1395.06,578.952 1396.5,577.5C 1397.42,578.127 1398.42,578.461 1399.5,578.5 Z"/></g>
<g><path style="opacity:1" fill="#1783bb" d="M 925.5,580.5 C 923.823,585.316 922.823,590.483 922.5,596C 913.506,596.5 904.506,596.666 895.5,596.5C 895.5,592.167 895.5,587.833 895.5,583.5C 895.286,581.856 895.62,580.356 896.5,579C 904.833,578.333 913.167,578.333 921.5,579C 923.058,579.21 924.391,579.71 925.5,580.5 Z"/></g>
<g><path style="opacity:1" fill="#04bfdc" d="M 1147.5,580.5 C 1150.35,586.55 1151.85,592.883 1152,599.5C 1143.47,602.591 1134.63,604.424 1125.5,605C 1130.83,605.667 1136.17,606.333 1141.5,607C 1142.44,609.719 1142.78,612.552 1142.5,615.5C 1145.83,615.5 1149.17,615.5 1152.5,615.5C 1157.4,616.213 1162.4,616.879 1167.5,617.5C 1167.08,623.405 1166.41,629.239 1165.5,635C 1156.17,635.167 1146.84,635.001 1137.5,634.5C 1133.2,648.639 1124.87,659.805 1112.5,668C 1110.83,668.833 1109.17,669.667 1107.5,670.5C 1103.08,668.249 1099.08,665.416 1095.5,662C 1094.55,661.517 1093.55,661.351 1092.5,661.5C 1092.35,660.448 1092.52,659.448 1093,658.5C 1098.07,654.937 1102.23,650.603 1105.5,645.5C 1108.7,642.282 1111.03,638.448 1112.5,634C 1103.89,632.703 1095.22,632.203 1086.5,632.5C 1086.67,630.152 1087,627.818 1087.5,625.5C 1086.82,622.822 1086.16,620.156 1085.5,617.5C 1085.5,616.167 1085.5,614.833 1085.5,613.5C 1090.17,613.5 1094.83,613.5 1099.5,613.5C 1105.5,613.5 1111.5,613.5 1117.5,613.5C 1117.5,611.5 1117.5,609.5 1117.5,607.5C 1118.04,607.44 1118.38,607.107 1118.5,606.5C 1113.21,605.505 1107.87,605.172 1102.5,605.5C 1100.87,601.774 1099.87,597.774 1099.5,593.5C 1099.5,592.167 1099.5,590.833 1099.5,589.5C 1113.34,587.125 1127,583.958 1140.5,580C 1143.04,579.204 1145.37,579.371 1147.5,580.5 Z"/></g>
<g><path style="opacity:1" fill="#057db5" d="M 1386.5,579.5 C 1388.09,583.307 1388.42,587.14 1387.5,591C 1384.17,591.667 1380.83,591.667 1377.5,591C 1376.72,588.328 1375.72,585.828 1374.5,583.5C 1374.23,581.549 1374.89,580.049 1376.5,579C 1379.92,578.253 1383.26,578.42 1386.5,579.5 Z"/></g>
<g><path style="opacity:1" fill="#030506" d="M 1399.5,578.5 C 1404.41,579.289 1408.41,581.623 1411.5,585.5C 1415.08,587.902 1416.25,591.235 1415,595.5C 1411.99,599.674 1408.49,603.341 1404.5,606.5C 1405.35,616.114 1403.18,625.114 1398,633.5C 1384.11,654.735 1365.44,670.069 1342,679.5C 1340.03,679.458 1338.2,678.958 1336.5,678C 1332.67,674.167 1328.83,670.333 1325,666.5C 1322.85,662.863 1323.02,659.53 1325.5,656.5C 1328.96,659.462 1332.3,662.629 1335.5,666C 1337.17,666.667 1338.83,666.667 1340.5,666C 1362.51,654.99 1379.68,638.823 1392,617.5C 1394.48,612.401 1395.48,607.068 1395,601.5C 1393.44,598.272 1390.94,596.105 1387.5,595C 1382.65,594.826 1377.98,594.326 1373.5,593.5C 1371.92,589.875 1372.25,586.542 1374.5,583.5C 1375.72,585.828 1376.72,588.328 1377.5,591C 1380.83,591.667 1384.17,591.667 1387.5,591C 1388.42,587.14 1388.09,583.307 1386.5,579.5C 1388.22,579.629 1389.88,579.962 1391.5,580.5C 1389.89,581.838 1389.39,583.505 1390,585.5C 1392.43,588.103 1394.93,590.436 1397.5,592.5C 1401.14,591.516 1403.81,589.349 1405.5,586C 1403.68,583.348 1401.68,580.848 1399.5,578.5 Z"/></g>
<g><path style="opacity:1" fill="#02bfdb" d="M 526.5,580.5 C 526.168,592.186 526.501,603.852 527.5,615.5C 528.107,615.376 528.44,615.043 528.5,614.5C 529.841,611.159 532.175,608.825 535.5,607.5C 541.896,609.015 548.229,610.682 554.5,612.5C 557.101,613.801 559.768,615.134 562.5,616.5C 563.478,616.811 564.145,617.478 564.5,618.5C 560.625,625.084 556.625,631.584 552.5,638C 551.167,638.667 549.833,638.667 548.5,638C 541.586,634.293 534.752,630.46 528,626.5C 527.667,640.167 527.333,653.833 527,667.5C 519.58,668.647 512.08,668.813 504.5,668C 503.505,640.241 503.172,612.407 503.5,584.5C 503.286,582.856 503.62,581.356 504.5,580C 512.012,579.178 519.345,579.345 526.5,580.5 Z"/></g>
<g><path style="opacity:1" fill="#070d11" d="M 925.5,580.5 C 929.192,580.938 931.692,582.938 933,586.5C 933.499,591.823 933.666,597.156 933.5,602.5C 919.951,602.406 906.618,601.406 893.5,599.5C 893.334,594.821 893.501,590.155 894,585.5C 894.278,584.584 894.778,583.918 895.5,583.5C 895.5,587.833 895.5,592.167 895.5,596.5C 904.506,596.666 913.506,596.5 922.5,596C 922.823,590.483 923.823,585.316 925.5,580.5 Z"/></g>
<g><path style="opacity:1" fill="#06090a" d="M 1147.5,580.5 C 1150.86,580.07 1153.7,581.07 1156,583.5C 1158.19,589.08 1160.19,594.747 1162,600.5C 1162.82,603.964 1162.48,607.298 1161,610.5C 1157.72,611.724 1154.89,613.391 1152.5,615.5C 1149.17,615.5 1145.83,615.5 1142.5,615.5C 1142.78,612.552 1142.44,609.719 1141.5,607C 1136.17,606.333 1130.83,605.667 1125.5,605C 1134.63,604.424 1143.47,602.591 1152,599.5C 1151.85,592.883 1150.35,586.55 1147.5,580.5 Z"/></g>
<g><path style="opacity:1" fill="#027eb8" d="M 1204.5,580.5 C 1204.33,591.838 1204.5,603.172 1205,614.5C 1206.72,611.275 1209.22,608.942 1212.5,607.5C 1218.9,609.015 1225.23,610.682 1231.5,612.5C 1233.32,612.831 1234.99,613.498 1236.5,614.5C 1238.32,615.584 1239.99,616.918 1241.5,618.5C 1237.63,625.084 1233.63,631.584 1229.5,638C 1228.17,638.667 1226.83,638.667 1225.5,638C 1218.59,634.293 1211.75,630.46 1205,626.5C 1204.82,640.408 1204.32,654.242 1203.5,668C 1196.17,668.667 1188.83,668.667 1181.5,668C 1180.5,640.241 1180.17,612.407 1180.5,584.5C 1180.29,582.856 1180.62,581.356 1181.5,580C 1189.25,579.202 1196.91,579.369 1204.5,580.5 Z"/></g>
<g><path style="opacity:1" fill="#040707" d="M 527.5,580.5 C 532.063,580.333 535.063,582.333 536.5,586.5C 535.76,590.525 536.26,594.525 538,598.5C 541.903,601.039 545.903,601.039 550,598.5C 550.26,595.423 549.76,592.423 548.5,589.5C 548.747,588.287 549.414,587.62 550.5,587.5C 551.791,587.263 552.791,587.596 553.5,588.5C 551.887,589.838 551.387,591.505 552,593.5C 554.688,596.272 557.354,598.938 560,601.5C 563.775,600.058 566.608,597.558 568.5,594C 566.68,591.348 564.68,588.848 562.5,586.5C 564.655,586.372 566.655,586.872 568.5,588C 570.539,590.374 572.872,592.374 575.5,594C 578.265,596.995 579.098,600.495 578,604.5C 574.825,608.008 571.325,611.175 567.5,614C 565.866,614.494 564.199,614.66 562.5,614.5C 560.645,613.31 558.812,611.977 557,610.5C 556.005,611.066 555.172,611.733 554.5,612.5C 548.229,610.682 541.896,609.015 535.5,607.5C 532.175,608.825 529.841,611.159 528.5,614.5C 527.505,603.346 527.172,592.012 527.5,580.5 Z"/></g>
<g><path style="opacity:1" fill="#030506" d="M 1204.5,580.5 C 1209.06,580.333 1212.06,582.333 1213.5,586.5C 1212.76,590.525 1213.26,594.525 1215,598.5C 1218.9,601.039 1222.9,601.039 1227,598.5C 1227.26,595.423 1226.76,592.423 1225.5,589.5C 1225.75,588.287 1226.41,587.62 1227.5,587.5C 1228.79,587.263 1229.79,587.596 1230.5,588.5C 1228.89,589.838 1228.39,591.505 1229,593.5C 1231.69,596.272 1234.35,598.938 1237,601.5C 1240.77,600.058 1243.61,597.558 1245.5,594C 1243.68,591.348 1241.68,588.848 1239.5,586.5C 1241.65,586.372 1243.65,586.872 1245.5,588C 1247.54,590.374 1249.87,592.374 1252.5,594C 1255.26,596.995 1256.1,600.495 1255,604.5C 1251.24,610.109 1246.07,613.443 1239.5,614.5C 1237.65,613.31 1235.81,611.977 1234,610.5C 1233.01,611.066 1232.17,611.733 1231.5,612.5C 1225.23,610.682 1218.9,609.015 1212.5,607.5C 1209.22,608.942 1206.72,611.275 1205,614.5C 1204.5,603.172 1204.33,591.838 1204.5,580.5 Z"/></g>
<g><path style="opacity:1" fill="#0091a8" d="M 526.5,580.5 C 526.833,580.5 527.167,580.5 527.5,580.5C 527.172,592.012 527.505,603.346 528.5,614.5C 528.44,615.043 528.107,615.376 527.5,615.5C 526.501,603.852 526.168,592.186 526.5,580.5 Z"/></g>
<g><path style="opacity:1" fill="#03c0dc" d="M 708.5,583.5 C 711.403,588.971 714.57,594.304 718,599.5C 718.798,601.259 718.631,602.926 717.5,604.5C 706.741,610.213 695.741,615.38 684.5,620C 689.086,620.197 693.586,620.697 698,621.5C 698.667,636.833 698.667,652.167 698,667.5C 690.58,668.647 683.08,668.813 675.5,668C 674.944,667.617 674.611,667.117 674.5,666.5C 674.833,652.151 674.499,637.818 673.5,623.5C 672.893,623.624 672.56,623.957 672.5,624.5C 664.242,627.029 655.909,629.363 647.5,631.5C 640.267,624.385 639.933,617.052 646.5,609.5C 665.719,601.225 684.719,592.392 703.5,583C 705.265,582.36 706.932,582.527 708.5,583.5 Z"/></g>
<g><path style="opacity:1" fill="#040506" d="M 708.5,583.5 C 711.675,583.503 714.508,584.503 717,586.5C 719.845,591.527 722.679,596.527 725.5,601.5C 731.242,607.745 737.242,613.911 743.5,620C 744.833,620.667 746.167,620.667 747.5,620C 753.795,616.357 759.462,612.024 764.5,607C 762.607,603.101 759.941,599.768 756.5,597C 753.079,595.301 750.079,593.135 747.5,590.5C 758.454,594.39 767.288,601.057 774,610.5C 774.584,613.257 774.25,615.923 773,618.5C 767.5,622.667 762,626.833 756.5,631C 752.187,633.981 747.853,634.148 743.5,631.5C 738.182,625.681 732.682,620.015 727,614.5C 721.073,618.215 714.906,621.548 708.5,624.5C 708.603,641.069 708.437,657.736 708,674.5C 707.654,676.848 706.487,678.681 704.5,680C 695.576,681.58 686.576,681.913 677.5,681C 676.421,680.044 675.255,679.211 674,678.5C 672.703,665.261 672.036,651.928 672,638.5C 665.348,641.039 658.514,643.039 651.5,644.5C 647.876,644.355 645.209,642.688 643.5,639.5C 638.458,647.715 632.458,655.215 625.5,662C 624,662.5 622.5,663 621,663.5C 617.141,662.153 613.641,660.153 610.5,657.5C 603.984,663.851 597.317,670.017 590.5,676C 586.402,680.069 581.736,681.069 576.5,679C 571.066,675.532 565.899,671.699 561,667.5C 560.264,664.408 560.431,661.408 561.5,658.5C 566.993,660.834 572.16,663.834 577,667.5C 579.752,666.414 582.252,664.914 584.5,663C 591.348,655.985 598.348,649.152 605.5,642.5C 609.206,645.376 613.039,648.043 617,650.5C 623.449,645.217 628.616,638.884 632.5,631.5C 632.471,629.971 631.804,628.804 630.5,628C 627.659,626.414 624.993,624.58 622.5,622.5C 628.27,614.626 633.27,606.293 637.5,597.5C 637.471,595.971 636.804,594.804 635.5,594C 630.613,591.726 625.946,589.226 621.5,586.5C 629.499,589.331 637.165,592.998 644.5,597.5C 647.749,600.993 648.416,604.993 646.5,609.5C 639.933,617.052 640.267,624.385 647.5,631.5C 655.909,629.363 664.242,627.029 672.5,624.5C 673.167,638.5 673.833,652.5 674.5,666.5C 674.611,667.117 674.944,667.617 675.5,668C 683.08,668.813 690.58,668.647 698,667.5C 698.667,652.167 698.667,636.833 698,621.5C 693.586,620.697 689.086,620.197 684.5,620C 695.741,615.38 706.741,610.213 717.5,604.5C 718.631,602.926 718.798,601.259 718,599.5C 714.57,594.304 711.403,588.971 708.5,583.5 Z"/></g>
<g><path style="opacity:1" fill="#060707" d="M 503.5,584.5 C 503.172,612.407 503.505,640.241 504.5,668C 512.08,668.813 519.58,668.647 527,667.5C 527.333,653.833 527.667,640.167 528,626.5C 534.752,630.46 541.586,634.293 548.5,638C 549.833,638.667 551.167,638.667 552.5,638C 556.625,631.584 560.625,625.084 564.5,618.5C 564.145,617.478 563.478,616.811 562.5,616.5C 562.5,616.167 562.5,615.833 562.5,615.5C 565.172,616.501 567.838,617.501 570.5,618.5C 575.615,621.565 580.615,624.898 585.5,628.5C 583.448,630.878 581.448,633.211 579.5,635.5C 577.862,634.343 576.196,633.176 574.5,632C 573.365,631.251 572.365,631.417 571.5,632.5C 568,638.167 564.5,643.833 561,649.5C 558.083,651.393 554.916,651.893 551.5,651C 547.081,648.373 542.581,645.873 538,643.5C 537.91,654.891 537.243,666.224 536,677.5C 534.421,679.041 532.587,680.208 530.5,681C 522.089,681.905 513.755,681.572 505.5,680C 503.951,678.786 502.785,677.286 502,675.5C 501.333,645.833 501.333,616.167 502,586.5C 502.278,585.584 502.778,584.918 503.5,584.5 Z"/></g>
<g><path style="opacity:1" fill="#0abdd9" d="M 562.5,586.5 C 564.68,588.848 566.68,591.348 568.5,594C 566.608,597.558 563.775,600.058 560,601.5C 557.354,598.938 554.688,596.272 552,593.5C 551.387,591.505 551.887,589.838 553.5,588.5C 556.096,585.766 559.096,585.1 562.5,586.5 Z"/></g>
<g><path style="opacity:1" fill="#0380ba" d="M 621.5,586.5 C 625.946,589.226 630.613,591.726 635.5,594C 636.804,594.804 637.471,595.971 637.5,597.5C 633.27,606.293 628.27,614.626 622.5,622.5C 624.993,624.58 627.659,626.414 630.5,628C 631.804,628.804 632.471,629.971 632.5,631.5C 628.616,638.884 623.449,645.217 617,650.5C 613.039,648.043 609.206,645.376 605.5,642.5C 598.348,649.152 591.348,655.985 584.5,663C 582.252,664.914 579.752,666.414 577,667.5C 572.16,663.834 566.993,660.834 561.5,658.5C 561.351,657.448 561.517,656.448 562,655.5C 568.042,648.962 573.875,642.295 579.5,635.5C 581.448,633.211 583.448,630.878 585.5,628.5C 580.615,624.898 575.615,621.565 570.5,618.5C 572.798,612.788 576.465,607.955 581.5,604C 584.364,603.807 587.03,604.307 589.5,605.5C 591.426,607.293 593.759,608.293 596.5,608.5C 597.172,609.267 598.005,609.934 599,610.5C 599.399,610.272 599.565,609.938 599.5,609.5C 605.192,602.624 610.359,595.29 615,587.5C 616.898,585.316 619.064,584.983 621.5,586.5 Z"/></g>
<g><path style="opacity:1" fill="#060708" d="M 1180.5,584.5 C 1180.17,612.407 1180.5,640.241 1181.5,668C 1188.83,668.667 1196.17,668.667 1203.5,668C 1204.32,654.242 1204.82,640.408 1205,626.5C 1211.75,630.46 1218.59,634.293 1225.5,638C 1226.83,638.667 1228.17,638.667 1229.5,638C 1233.63,631.584 1237.63,625.084 1241.5,618.5C 1239.99,616.918 1238.32,615.584 1236.5,614.5C 1237.5,614.5 1238.5,614.5 1239.5,614.5C 1241.85,616.343 1244.52,617.677 1247.5,618.5C 1249.14,619.749 1250.3,621.416 1251,623.5C 1251.42,627.934 1252.25,632.267 1253.5,636.5C 1259.37,635.595 1265.2,634.595 1271,633.5C 1271.58,627.233 1269.74,621.733 1265.5,617C 1266.74,616.768 1267.74,616.268 1268.5,615.5C 1268.5,614.833 1268.83,614.5 1269.5,614.5C 1270.8,620.252 1272.97,625.586 1276,630.5C 1279.8,629.393 1283.63,628.893 1287.5,629C 1284.18,635.15 1280.52,640.984 1276.5,646.5C 1269.91,648.099 1263.24,648.932 1256.5,649C 1255.07,648.535 1253.9,647.701 1253,646.5C 1251.48,642.068 1249.81,637.735 1248,633.5C 1244.67,638.833 1241.33,644.167 1238,649.5C 1235.08,651.393 1231.92,651.893 1228.5,651C 1224.08,648.373 1219.58,645.873 1215,643.5C 1214.91,654.891 1214.24,666.224 1213,677.5C 1211.42,679.041 1209.59,680.208 1207.5,681C 1199.09,681.905 1190.76,681.572 1182.5,680C 1180.95,678.786 1179.78,677.286 1179,675.5C 1178.33,645.833 1178.33,616.167 1179,586.5C 1179.28,585.584 1179.78,584.918 1180.5,584.5 Z"/></g>
<g><path style="opacity:1" fill="#027eb7" d="M 1239.5,586.5 C 1241.68,588.848 1243.68,591.348 1245.5,594C 1243.61,597.558 1240.77,600.058 1237,601.5C 1234.35,598.938 1231.69,596.272 1229,593.5C 1228.39,591.505 1228.89,589.838 1230.5,588.5C 1232.4,587.632 1234.24,586.632 1236,585.5C 1237.14,585.989 1238.31,586.322 1239.5,586.5 Z"/></g>
<g><path style="opacity:1" fill="#0280ba" d="M 1351.5,586.5 C 1352.35,588.882 1353.68,590.882 1355.5,592.5C 1361.31,593.49 1367.31,593.823 1373.5,593.5C 1377.98,594.326 1382.65,594.826 1387.5,595C 1390.94,596.105 1393.44,598.272 1395,601.5C 1395.48,607.068 1394.48,612.401 1392,617.5C 1379.68,638.823 1362.51,654.99 1340.5,666C 1338.83,666.667 1337.17,666.667 1335.5,666C 1332.3,662.629 1328.96,659.462 1325.5,656.5C 1325.34,655.127 1325.51,653.793 1326,652.5C 1337.55,645.121 1347.72,636.121 1356.5,625.5C 1359.99,622.164 1362.99,618.331 1365.5,614C 1365.17,613.667 1364.83,613.333 1364.5,613C 1359.5,612.333 1354.5,612.333 1349.5,613C 1343.13,615.566 1336.63,617.733 1330,619.5C 1328.89,619.415 1327.89,619.081 1327,618.5C 1324.69,613.38 1321.52,609.047 1317.5,605.5C 1318.07,603.97 1318.73,602.47 1319.5,601C 1328.47,597.518 1336.8,593.018 1344.5,587.5C 1346.69,585.647 1349.02,585.313 1351.5,586.5 Z"/></g>
<g><path style="opacity:1" fill="#0fb9d4" d="M 536.5,586.5 C 541.363,586.181 546.03,586.514 550.5,587.5C 549.414,587.62 548.747,588.287 548.5,589.5C 549.76,592.423 550.26,595.423 550,598.5C 545.903,601.039 541.903,601.039 538,598.5C 536.26,594.525 535.76,590.525 536.5,586.5 Z"/></g>
<g><path style="opacity:1" fill="#0c7cb3" d="M 1213.5,586.5 C 1218.36,586.181 1223.03,586.514 1227.5,587.5C 1226.41,587.62 1225.75,588.287 1225.5,589.5C 1226.76,592.423 1227.26,595.423 1227,598.5C 1222.9,601.039 1218.9,601.039 1215,598.5C 1213.26,594.525 1212.76,590.525 1213.5,586.5 Z"/></g>
<g><path style="opacity:1" fill="#05080b" d="M 1351.5,586.5 C 1353.2,586.34 1354.87,586.506 1356.5,587C 1362.99,591.171 1362.66,593.005 1355.5,592.5C 1353.68,590.882 1352.35,588.882 1351.5,586.5 Z"/></g>
<g><path style="opacity:1" fill="#047fb9" d="M 747.5,590.5 C 750.079,593.135 753.079,595.301 756.5,597C 759.941,599.768 762.607,603.101 764.5,607C 759.462,612.024 753.795,616.357 747.5,620C 746.167,620.667 744.833,620.667 743.5,620C 737.242,613.911 731.242,607.745 725.5,601.5C 730.748,596.531 736.748,592.531 743.5,589.5C 744.849,589.846 746.183,590.179 747.5,590.5 Z"/></g>
<g><path style="opacity:1" fill="#020506" d="M 1099.5,593.5 C 1099.87,597.774 1100.87,601.774 1102.5,605.5C 1107.5,606.167 1112.5,606.833 1117.5,607.5C 1117.5,609.5 1117.5,611.5 1117.5,613.5C 1111.5,613.5 1105.5,613.5 1099.5,613.5C 1098.34,607.202 1097.84,600.869 1098,594.5C 1098.38,593.944 1098.88,593.611 1099.5,593.5 Z"/></g>
<g><path style="opacity:1" fill="#0280ba" d="M 893.5,599.5 C 906.618,601.406 919.951,602.406 933.5,602.5C 936.003,603.371 938.67,604.037 941.5,604.5C 945.226,608.426 946.392,613.093 945,618.5C 938.322,638.027 927.489,654.86 912.5,669C 905.902,668.862 899.569,667.362 893.5,664.5C 900.243,654.023 906.243,643.023 911.5,631.5C 914.467,628.101 915.8,624.268 915.5,620C 908.54,618.913 901.54,618.413 894.5,618.5C 894.341,623.111 893.675,627.611 892.5,632C 885.185,631.918 877.851,631.585 870.5,631C 869.944,630.617 869.611,630.117 869.5,629.5C 870.167,621.833 870.833,614.167 871.5,606.5C 871.797,603.441 873.13,600.941 875.5,599C 881.48,599.072 887.48,599.239 893.5,599.5 Z"/></g>
<g><path style="opacity:1" fill="#05c0dc" d="M 996.5,601.5 C 996.335,605.182 996.501,608.848 997,612.5C 1000.06,613.451 1003.22,613.784 1006.5,613.5C 1006.5,613.833 1006.5,614.167 1006.5,614.5C 1006.67,619.179 1006.5,623.845 1006,628.5C 1003.62,629.435 1001.12,629.768 998.5,629.5C 999.133,641.498 999.3,653.498 999,665.5C 993.259,666.475 987.425,666.808 981.5,666.5C 981.463,660.465 980.963,654.465 980,648.5C 975.429,655.739 969.095,660.739 961,663.5C 957.021,661.018 953.188,658.351 949.5,655.5C 949.351,654.448 949.517,653.448 950,652.5C 954.711,649.29 958.544,645.29 961.5,640.5C 963.601,637.821 965.601,634.988 967.5,632C 971.456,631.963 975.123,633.13 978.5,635.5C 979.474,633.257 979.808,630.924 979.5,628.5C 971.164,628.218 962.831,627.884 954.5,627.5C 956.125,621.975 955.792,616.641 953.5,611.5C 961.167,611.5 968.833,611.5 976.5,611.5C 977.693,611.03 978.36,610.03 978.5,608.5C 978.48,607.274 978.147,606.274 977.5,605.5C 977.33,604.178 977.663,603.011 978.5,602C 984.547,600.673 990.547,600.507 996.5,601.5 Z"/></g>
<g><path style="opacity:1" fill="#0e1516" d="M 996.5,601.5 C 1003.86,602.189 1007.19,606.189 1006.5,613.5C 1003.22,613.784 1000.06,613.451 997,612.5C 996.501,608.848 996.335,605.182 996.5,601.5 Z"/></g>
<g><path style="opacity:1" fill="#24303a" d="M 589.5,605.5 C 592.241,605.707 594.574,606.707 596.5,608.5C 593.759,608.293 591.426,607.293 589.5,605.5 Z"/></g>
<g><path style="opacity:1" fill="#030506" d="M 941.5,604.5 C 946.425,605.294 950.425,607.628 953.5,611.5C 955.792,616.641 956.125,621.975 954.5,627.5C 962.831,627.884 971.164,628.218 979.5,628.5C 979.808,630.924 979.474,633.257 978.5,635.5C 975.123,633.13 971.456,631.963 967.5,632C 965.601,634.988 963.601,637.821 961.5,640.5C 957.112,641.057 953.945,639.39 952,635.5C 944.659,653.172 933.825,668.339 919.5,681C 916.262,682.368 912.928,682.701 909.5,682C 903.408,680.643 897.908,678.143 893,674.5C 890.877,671.015 891.044,667.682 893.5,664.5C 899.569,667.362 905.902,668.862 912.5,669C 927.489,654.86 938.322,638.027 945,618.5C 946.392,613.093 945.226,608.426 941.5,604.5 Z"/></g>
<g><path style="opacity:1" fill="#005967" d="M 1102.5,605.5 C 1107.87,605.172 1113.21,605.505 1118.5,606.5C 1118.38,607.107 1118.04,607.44 1117.5,607.5C 1112.5,606.833 1107.5,606.167 1102.5,605.5 Z"/></g>
<g><path style="opacity:1" fill="#09c0dd" d="M 845.5,608.5 C 853.007,613.547 855.507,620.547 853,629.5C 846.686,640.622 837.852,643.122 826.5,637C 822.423,633.015 820.423,628.181 820.5,622.5C 823.705,608.73 832.038,604.063 845.5,608.5 Z"/></g>
<g><path style="opacity:1" fill="#0f181a" d="M 977.5,605.5 C 978.147,606.274 978.48,607.274 978.5,608.5C 978.36,610.03 977.693,611.03 976.5,611.5C 976.325,609.379 976.659,607.379 977.5,605.5 Z"/></g>
<g><path style="opacity:1" fill="#16232b" d="M 596.5,608.5 C 597.791,608.263 598.791,608.596 599.5,609.5C 599.565,609.938 599.399,610.272 599,610.5C 598.005,609.934 597.172,609.267 596.5,608.5 Z"/></g>
<g><path style="opacity:1" fill="#07090a" d="M 845.5,608.5 C 861.022,613.546 866.522,623.879 862,639.5C 857.972,648.514 850.972,653.181 841,653.5C 827.087,651.919 819.587,644.085 818.5,630C 818.408,627.179 819.074,624.679 820.5,622.5C 820.423,628.181 822.423,633.015 826.5,637C 837.852,643.122 846.686,640.622 853,629.5C 855.507,620.547 853.007,613.547 845.5,608.5 Z"/></g>
<g><path style="opacity:1" fill="#057fb8" d="M 1050.5,610.5 C 1052.57,613.646 1054.41,616.979 1056,620.5C 1057.52,618.431 1058.36,616.097 1058.5,613.5C 1059.23,612.071 1060.4,611.071 1062,610.5C 1066.61,611.31 1070.78,612.977 1074.5,615.5C 1076.21,616.223 1077.21,617.557 1077.5,619.5C 1071.73,638.737 1061.23,654.737 1046,667.5C 1041.51,665.728 1037.01,664.061 1032.5,662.5C 1032.49,660.692 1032.99,659.025 1034,657.5C 1037.14,654.208 1039.64,650.542 1041.5,646.5C 1045.52,640.984 1049.18,635.15 1052.5,629C 1048.63,628.893 1044.8,629.393 1041,630.5C 1037.97,625.586 1035.8,620.252 1034.5,614.5C 1034.5,613.167 1034.5,611.833 1034.5,610.5C 1039.99,609.364 1045.32,609.364 1050.5,610.5 Z"/></g>
<g><path style="opacity:1" fill="#07bfdc" d="M 1285.5,610.5 C 1287.57,613.646 1289.41,616.979 1291,620.5C 1292.52,618.431 1293.36,616.097 1293.5,613.5C 1294.23,612.071 1295.4,611.071 1297,610.5C 1298.8,611.32 1300.63,611.986 1302.5,612.5C 1303.78,613.931 1305.45,614.598 1307.5,614.5C 1312.62,616.288 1313.79,619.622 1311,624.5C 1304.68,641.513 1294.68,655.846 1281,667.5C 1276.51,665.728 1272.01,664.061 1267.5,662.5C 1267.49,660.692 1267.99,659.025 1269,657.5C 1272.14,654.208 1274.64,650.542 1276.5,646.5C 1280.52,640.984 1284.18,635.15 1287.5,629C 1283.63,628.893 1279.8,629.393 1276,630.5C 1272.97,625.586 1270.8,620.252 1269.5,614.5C 1269.5,613.167 1269.5,611.833 1269.5,610.5C 1273.68,609.997 1277.85,609.331 1282,608.5C 1283.7,608.387 1284.87,609.053 1285.5,610.5 Z"/></g>
<g><path style="opacity:1" fill="#050a0d" d="M 1050.5,610.5 C 1053.83,610.018 1056.5,611.018 1058.5,613.5C 1058.36,616.097 1057.52,618.431 1056,620.5C 1054.41,616.979 1052.57,613.646 1050.5,610.5 Z"/></g>
<g><path style="opacity:1" fill="#070e0f" d="M 1285.5,610.5 C 1288.83,610.018 1291.5,611.018 1293.5,613.5C 1293.36,616.097 1292.52,618.431 1291,620.5C 1289.41,616.979 1287.57,613.646 1285.5,610.5 Z"/></g>
<g><path style="opacity:1" fill="#2f3539" d="M 871.5,606.5 C 870.833,614.167 870.167,621.833 869.5,629.5C 868.833,629.833 868.167,630.167 867.5,630.5C 868.041,622.226 869.375,614.226 871.5,606.5 Z"/></g>
<g><path style="opacity:1" fill="#636d6f" d="M 562.5,614.5 C 562.5,614.833 562.5,615.167 562.5,615.5C 562.5,615.833 562.5,616.167 562.5,616.5C 559.768,615.134 557.101,613.801 554.5,612.5C 555.172,611.733 556.005,611.066 557,610.5C 558.812,611.977 560.645,613.31 562.5,614.5 Z"/></g>
<g><path style="opacity:1" fill="#7c7e7f" d="M 1239.5,614.5 C 1238.5,614.5 1237.5,614.5 1236.5,614.5C 1234.99,613.498 1233.32,612.831 1231.5,612.5C 1232.17,611.733 1233.01,611.066 1234,610.5C 1235.81,611.977 1237.65,613.31 1239.5,614.5 Z"/></g>
<g><path style="opacity:1" fill="#21373c" d="M 1302.5,612.5 C 1304.55,612.402 1306.22,613.069 1307.5,614.5C 1305.45,614.598 1303.78,613.931 1302.5,612.5 Z"/></g>
<g><path style="opacity:1" fill="#040607" d="M 1006.5,614.5 C 1009.15,614.41 1011.49,615.076 1013.5,616.5C 1015.16,623.161 1016.83,629.827 1018.5,636.5C 1024.37,635.595 1030.2,634.595 1036,633.5C 1036.18,627.38 1034.35,621.88 1030.5,617C 1031.74,616.768 1032.74,616.268 1033.5,615.5C 1033.5,614.833 1033.83,614.5 1034.5,614.5C 1035.8,620.252 1037.97,625.586 1041,630.5C 1044.8,629.393 1048.63,628.893 1052.5,629C 1049.18,635.15 1045.52,640.984 1041.5,646.5C 1035.87,647.605 1030.21,648.605 1024.5,649.5C 1018.88,648.637 1015.71,645.304 1015,639.5C 1013.27,641.451 1011.1,642.451 1008.5,642.5C 1009.21,653.162 1009.38,663.829 1009,674.5C 1007.66,677.094 1005.49,678.594 1002.5,679C 996.167,679.667 989.833,679.667 983.5,679C 980.527,676.552 979.027,673.386 979,669.5C 974.126,673.454 968.626,675.621 962.5,676C 955.204,672.873 950.204,667.707 947.5,660.5C 947.436,658.443 948.102,656.777 949.5,655.5C 953.188,658.351 957.021,661.018 961,663.5C 969.095,660.739 975.429,655.739 980,648.5C 980.963,654.465 981.463,660.465 981.5,666.5C 987.425,666.808 993.259,666.475 999,665.5C 999.3,653.498 999.133,641.498 998.5,629.5C 1001.12,629.768 1003.62,629.435 1006,628.5C 1006.5,623.845 1006.67,619.179 1006.5,614.5 Z"/></g>
<g><path style="opacity:1" fill="#0e7fb8" d="M 1033.5,615.5 C 1032.74,616.268 1031.74,616.768 1030.5,617C 1034.35,621.88 1036.18,627.38 1036,633.5C 1030.2,634.595 1024.37,635.595 1018.5,636.5C 1016.83,629.827 1015.16,623.161 1013.5,616.5C 1020.17,615.125 1026.84,614.792 1033.5,615.5 Z"/></g>
<g><path style="opacity:1" fill="#14beda" d="M 1268.5,615.5 C 1267.74,616.268 1266.74,616.768 1265.5,617C 1269.74,621.733 1271.58,627.233 1271,633.5C 1265.2,634.595 1259.37,635.595 1253.5,636.5C 1252.25,632.267 1251.42,627.934 1251,623.5C 1250.3,621.416 1249.14,619.749 1247.5,618.5C 1248.31,617.531 1249.31,616.698 1250.5,616C 1256.55,614.957 1262.55,614.79 1268.5,615.5 Z"/></g>
<g><path style="opacity:1" fill="#0780ba" d="M 801.5,618.5 C 800.448,618.351 799.448,618.517 798.5,619C 800.873,623.581 803.373,628.081 806,632.5C 806.667,633.5 806.667,634.5 806,635.5C 788.539,650.314 768.705,660.481 746.5,666C 743.184,659.85 739.517,654.016 735.5,648.5C 735.33,647.178 735.663,646.011 736.5,645C 756.628,637.269 775.961,627.936 794.5,617C 797.058,616.725 799.392,617.225 801.5,618.5 Z"/></g>
<g><path style="opacity:1" fill="#030505" d="M 1074.5,615.5 C 1077.46,616.061 1080.3,617.061 1083,618.5C 1083.9,618.257 1084.74,617.923 1085.5,617.5C 1086.16,620.156 1086.82,622.822 1087.5,625.5C 1087,627.818 1086.67,630.152 1086.5,632.5C 1095.22,632.203 1103.89,632.703 1112.5,634C 1111.03,638.448 1108.7,642.282 1105.5,645.5C 1100.16,645.666 1094.82,645.499 1089.5,645C 1086.42,644.214 1084.25,642.381 1083,639.5C 1076.32,654.698 1066.82,667.865 1054.5,679C 1052.64,679.422 1050.81,679.922 1049,680.5C 1042.99,678.394 1037.32,675.728 1032,672.5C 1029.88,668.934 1030.05,665.6 1032.5,662.5C 1037.01,664.061 1041.51,665.728 1046,667.5C 1061.23,654.737 1071.73,638.737 1077.5,619.5C 1077.21,617.557 1076.21,616.223 1074.5,615.5 Z"/></g>
<g><path style="opacity:1" fill="#040606" d="M 1167.5,617.5 C 1171.51,617.56 1174.68,619.227 1177,622.5C 1177.36,630.255 1176.69,637.921 1175,645.5C 1173.83,646.893 1172.33,647.727 1170.5,648C 1165.51,648.499 1160.51,648.666 1155.5,648.5C 1154.04,647.84 1152.37,647.507 1150.5,647.5C 1148.36,647.556 1146.69,648.223 1145.5,649.5C 1138.49,665.175 1127.16,676.508 1111.5,683.5C 1104.34,680.183 1097.84,675.849 1092,670.5C 1089.89,667.345 1090.06,664.345 1092.5,661.5C 1093.55,661.351 1094.55,661.517 1095.5,662C 1099.08,665.416 1103.08,668.249 1107.5,670.5C 1109.17,669.667 1110.83,668.833 1112.5,668C 1124.87,659.805 1133.2,648.639 1137.5,634.5C 1146.84,635.001 1156.17,635.167 1165.5,635C 1166.41,629.239 1167.08,623.405 1167.5,617.5 Z"/></g>
<g><path style="opacity:1" fill="#030405" d="M 1317.5,605.5 C 1321.52,609.047 1324.69,613.38 1327,618.5C 1327.89,619.081 1328.89,619.415 1330,619.5C 1336.63,617.733 1343.13,615.566 1349.5,613C 1354.5,612.333 1359.5,612.333 1364.5,613C 1364.83,613.333 1365.17,613.667 1365.5,614C 1362.99,618.331 1359.99,622.164 1356.5,625.5C 1349.05,628.427 1341.38,630.761 1333.5,632.5C 1328.34,631.516 1324.84,628.516 1323,623.5C 1317.33,645.35 1306.16,663.85 1289.5,679C 1287.64,679.422 1285.81,679.922 1284,680.5C 1277.99,678.394 1272.32,675.728 1267,672.5C 1264.88,668.934 1265.05,665.6 1267.5,662.5C 1272.01,664.061 1276.51,665.728 1281,667.5C 1294.68,655.846 1304.68,641.513 1311,624.5C 1313.79,619.622 1312.62,616.288 1307.5,614.5C 1312.11,615.553 1316.27,617.553 1320,620.5C 1318.72,617.084 1317.22,613.584 1315.5,610C 1316.04,608.415 1316.71,606.915 1317.5,605.5 Z"/></g>
<g><path style="opacity:1" fill="#030405" d="M 801.5,618.5 C 803.17,618.751 804.67,619.418 806,620.5C 809.333,626.5 812.667,632.5 816,638.5C 816.755,641.303 816.422,643.97 815,646.5C 795.493,662.837 773.326,673.67 748.5,679C 743.139,672.459 738.639,665.293 735,657.5C 734.264,654.408 734.431,651.408 735.5,648.5C 739.517,654.016 743.184,659.85 746.5,666C 768.705,660.481 788.539,650.314 806,635.5C 806.667,634.5 806.667,633.5 806,632.5C 803.373,628.081 800.873,623.581 798.5,619C 799.448,618.517 800.448,618.351 801.5,618.5 Z"/></g>
<g><path style="opacity:1" fill="#040506" d="M 911.5,631.5 C 908.833,631.5 906.167,631.5 903.5,631.5C 904.585,641.581 900.085,646.248 890,645.5C 883.739,645.249 877.573,644.416 871.5,643C 867.961,639.613 866.628,635.447 867.5,630.5C 868.167,630.167 868.833,629.833 869.5,629.5C 869.611,630.117 869.944,630.617 870.5,631C 877.851,631.585 885.185,631.918 892.5,632C 893.675,627.611 894.341,623.111 894.5,618.5C 901.54,618.413 908.54,618.913 915.5,620C 915.8,624.268 914.467,628.101 911.5,631.5 Z"/></g>
<g><path style="opacity:1" fill="#003037" d="M 672.5,624.5 C 672.56,623.957 672.893,623.624 673.5,623.5C 674.499,637.818 674.833,652.151 674.5,666.5C 673.833,652.5 673.167,638.5 672.5,624.5 Z"/></g>
<g><path style="opacity:1" fill="#c9c9c9" d="M 636.5,624.5 C 637.497,624.47 638.164,624.97 638.5,626C 639.827,628.453 640.661,630.953 641,633.5C 639.292,631.457 637.292,629.79 635,628.5C 634.7,626.934 635.2,625.601 636.5,624.5 Z"/></g>
<g><path style="opacity:1" fill="#8e8e8e" d="M 1155.5,648.5 C 1152.06,648.253 1148.73,648.586 1145.5,649.5C 1146.69,648.223 1148.36,647.556 1150.5,647.5C 1152.37,647.507 1154.04,647.84 1155.5,648.5 Z"/></g>
</svg>
